font.ufo
<glyph name="exclam" format="1">
  <advance width="477"/>
  <unicode hex="0021"/>
  <outline>
    <contour>
      <point x="363" y="550" type="line"/>
      <point x="515" y="917" type="line"/>
      <point x="465" y="977"/>
      <point x="323" y="1001"/>
      <point x="230" y="959" type="curve"/>
      <point x="190" y="624" type="line"/>
      <point x="137" y="316" type="line"/>
      <point x="215" y="255"/>
      <point x="266" y="266"/>
      <point x="296" y="315" type="curve"/>
    </contour>
    <contour>
      <point x="300" y="91" type="curve"/>
      <point x="292" y="156"/>
      <point x="236" y="228"/>
      <point x="189" y="228" type="curve"/>
      <point x="122" y="219"/>
      <point x="67" y="151"/>
      <point x="50" y="79" type="curve"/>
      <point x="55" y="29"/>
      <point x="91" y="-8"/>
      <point x="135" y="-8" type="curve"/>
      <point x="193" y="-8"/>
      <point x="253" y="30"/>
    </contour>
  </outline>
</glyph>
<glyph name="question" format="1">
  <advance width="702"/>
  <unicode hex="003F"/>
  <outline>
    <contour>
      <point x="348" y="364" type="line"/>
      <point x="557" y="420"/>
      <point x="673" y="516"/>
      <point x="674" y="653" type="curve" smooth="yes"/>
      <point x="675" y="788"/>
      <point x="532" y="937"/>
      <point x="396" y="937" type="curve" smooth="yes"/>
      <point x="290" y="937"/>
      <point x="169" y="898"/>
      <point x="39" y="827" type="curve"/>
      <point x="39" y="714"/>
      <point x="108" y="570"/>
      <point x="174" y="570" type="curve" smooth="yes"/>
      <point x="187" y="570"/>
      <point x="204" y="576"/>
      <point x="224" y="585" type="curve"/>
      <point x="209" y="655" type="line"/>
      <point x="285" y="704"/>
      <point x="395" y="746"/>
      <point x="501" y="751" type="curve"/>
      <point x="512" y="741"/>
      <point x="519" y="725"/>
      <point x="519" y="706" type="curve" smooth="yes"/>
      <point x="518" y="641"/>
      <point x="375" y="549"/>
      <point x="242" y="537" type="curve"/>
      <point x="205" y="514"/>
      <point x="178" y="466"/>
      <point x="164" y="420" type="curve"/>
      <point x="255" y="277" type="line" smooth="yes"/>
      <point x="268" y="255"/>
      <point x="321" y="257"/>
      <point x="354" y="271" type="curve"/>
    </contour>
    <contour>
      <point x="277" y="-8" type="curve" smooth="yes"/>
      <point x="336" y="-8"/>
      <point x="395" y="30"/>
      <point x="442" y="91" type="curve"/>
      <point x="435" y="156"/>
      <point x="378" y="228"/>
      <point x="331" y="228" type="curve"/>
      <point x="264" y="219"/>
      <point x="209" y="151"/>
      <point x="193" y="79" type="curve"/>
      <point x="197" y="29"/>
      <point x="233" y="-8"/>
    </contour>
  </outline>
</glyph>
<glyph name="uni0123" format="1">
  <advance width="760"/>
  <unicode hex="0123"/>
  <outline>
    <contour>
      <point x="515" y="618" type="curve"/>
      <point x="617" y="694"/>
      <point x="660" y="775"/>
      <point x="665" y="856" type="curve"/>
      <point x="650" y="898"/>
      <point x="576" y="950"/>
      <point x="493" y="887" type="curve"/>
      <point x="508" y="737" type="line"/>
      <point x="452" y="655" type="line"/>
      <point x="460" y="631"/>
      <point x="479" y="619"/>
    </contour>
    <component base="g"/>
  </outline>
</glyph>
<glyph name="uni0137" format="1">
  <advance width="689"/>
  <unicode hex="0137"/>
  <outline>
    <contour>
      <point x="284" y="-330" type="curve"/>
      <point x="386" y="-254"/>
      <point x="429" y="-173"/>
      <point x="434" y="-92" type="curve"/>
      <point x="419" y="-50"/>
      <point x="345" y="2"/>
      <point x="262" y="-61" type="curve"/>
      <point x="277" y="-211" type="line"/>
      <point x="221" y="-293" type="line"/>
      <point x="229" y="-317"/>
      <point x="248" y="-329"/>
    </contour>
    <component base="k"/>
  </outline>
</glyph>
<glyph name="uni013C" format="1">
  <advance width="375"/>
  <unicode hex="013C"/>
  <outline>
    <contour>
      <point x="81" y="-330" type="curve"/>
      <point x="183" y="-254"/>
      <point x="226" y="-173"/>
      <point x="231" y="-92" type="curve"/>
      <point x="216" y="-50"/>
      <point x="142" y="2"/>
      <point x="59" y="-61" type="curve"/>
      <point x="74" y="-211" type="line"/>
      <point x="18" y="-293" type="line"/>
      <point x="26" y="-317"/>
      <point x="45" y="-329"/>
    </contour>
    <component base="l"/>
  </outline>
</glyph>
<glyph name="Lslash" format="1">
  <advance width="711"/>
  <unicode hex="0141"/>
  <outline>
    <contour>
      <point x="573" y="507" type="curve"/>
      <point x="217" y="447" type="line"/>
      <point x="76" y="465" type="line"/>
      <point x="50" y="442"/>
      <point x="45" y="392"/>
      <point x="88" y="344" type="curve"/>
      <point x="385" y="385" type="line"/>
      <point x="583" y="381" type="line"/>
      <point x="637" y="435"/>
      <point x="621" y="485"/>
    </contour>
    <component base="L" xOffset="80"/>
  </outline>
</glyph>
<glyph name="uni0146" format="1">
  <advance width="754"/>
  <unicode hex="0146"/>
  <outline>
    <contour>
      <point x="324" y="-330" type="curve"/>
      <point x="426" y="-254"/>
      <point x="469" y="-173"/>
      <point x="474" y="-92" type="curve"/>
      <point x="459" y="-50"/>
      <point x="385" y="2"/>
      <point x="302" y="-61" type="curve"/>
      <point x="317" y="-211" type="line"/>
      <point x="261" y="-293" type="line"/>
      <point x="269" y="-317"/>
      <point x="288" y="-329"/>
    </contour>
    <component base="n"/>
  </outline>
</glyph>
<glyph name="uni0156" format="1">
  <advance width="760"/>
  <unicode hex="0156"/>
  <outline>
    <contour>
      <point x="334" y="-330" type="curve"/>
      <point x="436" y="-254"/>
      <point x="479" y="-173"/>
      <point x="484" y="-92" type="curve"/>
      <point x="469" y="-50"/>
      <point x="395" y="2"/>
      <point x="312" y="-61" type="curve"/>
      <point x="327" y="-211" type="line"/>
      <point x="271" y="-293" type="line"/>
      <point x="279" y="-317"/>
      <point x="298" y="-329"/>
    </contour>
    <component base="R"/>
  </outline>
</glyph>
<glyph name="uni0157" format="1">
  <advance width="621"/>
  <unicode hex="0157"/>
  <outline>
    <contour>
      <point x="93" y="-330" type="curve"/>
      <point x="195" y="-254"/>
      <point x="238" y="-173"/>
      <point x="243" y="-92" type="curve"/>
      <point x="228" y="-50"/>
      <point x="154" y="2"/>
      <point x="71" y="-61" type="curve"/>
      <point x="86" y="-211" type="line"/>
      <point x="30" y="-293" type="line"/>
      <point x="38" y="-317"/>
      <point x="57" y="-329"/>
    </contour>
    <component base="r"/>
  </outline>
</glyph>
<glyph name="uni021A" format="1">
  <advance width="727"/>
  <unicode hex="021A"/>
  <outline>
    <contour>
      <point x="264" y="-330" type="curve"/>
      <point x="366" y="-254"/>
      <point x="409" y="-173"/>
      <point x="414" y="-92" type="curve"/>
      <point x="399" y="-50"/>
      <point x="325" y="2"/>
      <point x="242" y="-61" type="curve"/>
      <point x="257" y="-211" type="line"/>
      <point x="201" y="-293" type="line"/>
      <point x="209" y="-317"/>
      <point x="228" y="-329"/>
    </contour>
    <component base="T"/>
  </outline>
</glyph>
<glyph name="uni021B" format="1">
  <advance width="609"/>
  <unicode hex="021B"/>
  <outline>
    <contour>
      <point x="254" y="-330" type="curve"/>
      <point x="356" y="-254"/>
      <point x="399" y="-173"/>
      <point x="404" y="-92" type="curve"/>
      <point x="389" y="-50"/>
      <point x="315" y="2"/>
      <point x="232" y="-61" type="curve"/>
      <point x="247" y="-211" type="line"/>
      <point x="191" y="-293" type="line"/>
      <point x="199" y="-317"/>
      <point x="218" y="-329"/>
    </contour>
    <component base="t"/>
  </outline>
</glyph>
<glyph name="dvNukta" format="1">
  <advance width="0"/>
  <unicode hex="093C"/>
  <outline>
    <contour>
      <point x="84" y="0" type="curve" smooth="yes"/>
      <point x="128" y="0"/>
      <point x="164" y="36"/>
      <point x="164" y="80" type="curve" smooth="yes"/>
      <point x="164" y="124"/>
      <point x="128" y="160"/>
      <point x="84" y="160" type="curve" smooth="yes"/>
      <point x="38" y="160"/>
      <point x="2" y="124"/>
      <point x="2" y="80" type="curve" smooth="yes"/>
      <point x="2" y="36"/>
      <point x="38" y="0"/>
    </contour>
  </outline>
</glyph>
<glyph name="dvmI" format="1">
  <advance width="380"/>
  <unicode hex="093F"/>
  <outline>
    <contour>
      <point x="698" y="733" type="move" name="abvm_Reph_alt"/>
    </contour>
    <contour>
      <point x="137" y="840" type="curve"/>
      <point x="139" y="592" type="line"/>
      <point x="18" y="64" type="line"/>
      <point x="108" y="-5"/>
      <point x="242" y="-17"/>
      <point x="281" y="25" type="curve"/>
      <point x="275" y="418"/>
      <point x="316" y="660"/>
      <point x="351" y="860" type="curve"/>
      <point x="366" y="868" type="line"/>
      <point x="479" y="821"/>
      <point x="540" y="771"/>
      <point x="623" y="680" type="curve"/>
      <point x="711" y="688"/>
      <point x="774" y="734"/>
      <point x="786" y="797" type="curve"/>
      <point x="711" y="905"/>
      <point x="515" y="1007"/>
      <point x="388" y="1007" type="curve" smooth="yes"/>
      <point x="308" y="1007"/>
      <point x="176" y="924"/>
    </contour>
    <contour>
      <point x="508" y="565" type="line"/>
      <point x="525" y="577"/>
      <point x="533" y="595"/>
      <point x="537" y="612" type="curve"/>
      <point x="525" y="627" type="line"/>
      <point x="2" y="627" type="line"/>
      <point x="-15" y="615"/>
      <point x="-27" y="597"/>
      <point x="-35" y="584" type="curve"/>
      <point x="-15" y="565" type="line"/>
    </contour>
  </outline>
</glyph>
<glyph name="dvmvRR" format="1">
  <advance width="0"/>
  <unicode hex="0944"/>
  <outline>
    <contour>
      <point x="-443" y="-111" type="curve"/>
      <point x="-439" y="-153"/>
      <point x="-404" y="-178"/>
      <point x="-344" y="-177" type="curve"/>
      <point x="-342" y="-183" type="line"/>
      <point x="-400" y="-194"/>
      <point x="-440" y="-219"/>
      <point x="-456" y="-262" type="curve"/>
      <point x="-446" y="-316"/>
      <point x="-396" y="-343"/>
      <point x="-330" y="-354" type="curve"/>
      <point x="-238" y="-351"/>
      <point x="-168" y="-325"/>
      <point x="-125" y="-286" type="curve"/>
      <point x="-117" y="-220"/>
      <point x="-142" y="-199"/>
      <point x="-178" y="-196" type="curve"/>
      <point x="-216" y="-225"/>
      <point x="-271" y="-253"/>
      <point x="-317" y="-269" type="curve"/>
      <point x="-321" y="-263" type="line"/>
      <point x="-285" y="-232"/>
      <point x="-237" y="-211"/>
      <point x="-209" y="-202" type="curve"/>
      <point x="-189" y="-156"/>
      <point x="-216" y="-125"/>
      <point x="-249" y="-123" type="curve"/>
      <point x="-261" y="-132"/>
      <point x="-289" y="-141"/>
      <point x="-315" y="-150" type="curve"/>
      <point x="-319" y="-144" type="line"/>
      <point x="-279" y="-114"/>
      <point x="-224" y="-95"/>
      <point x="-181" y="-86" type="curve"/>
      <point x="-173" y="-40"/>
      <point x="-181" y="-12"/>
      <point x="-237" y="0" type="curve"/>
      <point x="-316" y="-13"/>
      <point x="-416" y="-58"/>
    </contour>
  </outline>
</glyph>
<glyph name="dvmOcandra" format="1">
  <advance width="380"/>
  <unicode hex="0949"/>
  <outline>
    <contour>
      <point x="383" y="614" type="line"/>
      <point x="353" y="668"/>
      <point x="295" y="673"/>
      <point x="147" y="658" type="curve"/>
      <point x="18" y="64" type="line"/>
      <point x="108" y="-5"/>
      <point x="242" y="-17"/>
      <point x="281" y="25" type="curve"/>
      <point x="285" y="419" type="line"/>
    </contour>
    <contour>
      <point x="508" y="565" type="line"/>
      <point x="525" y="577"/>
      <point x="533" y="595"/>
      <point x="537" y="612" type="curve"/>
      <point x="525" y="627" type="line"/>
      <point x="2" y="627" type="line"/>
      <point x="-15" y="615"/>
      <point x="-27" y="597"/>
      <point x="-35" y="584" type="curve"/>
      <point x="-15" y="565" type="line"/>
    </contour>
    <contour>
      <point x="544" y="806" type="curve"/>
      <point x="516" y="869"/>
      <point x="449" y="899"/>
      <point x="397" y="871" type="curve"/>
      <point x="384" y="819"/>
      <point x="348" y="761"/>
      <point x="280" y="747" type="curve"/>
      <point x="221" y="797"/>
      <point x="208" y="863"/>
      <point x="211" y="947" type="curve"/>
      <point x="141" y="979"/>
      <point x="70" y="950"/>
      <point x="25" y="874" type="curve"/>
      <point x="53" y="744"/>
      <point x="186" y="663"/>
      <point x="268" y="663" type="curve" smooth="yes"/>
      <point x="384" y="663"/>
      <point x="491" y="724"/>
    </contour>
  </outline>
</glyph>
<glyph name="dvmAU" format="1">
  <advance width="380"/>
  <unicode hex="094C"/>
  <outline>
    <contour>
      <point x="383" y="614" type="line"/>
      <point x="353" y="668"/>
      <point x="295" y="673"/>
      <point x="147" y="658" type="curve"/>
      <point x="18" y="64" type="line"/>
      <point x="108" y="-5"/>
      <point x="242" y="-17"/>
      <point x="281" y="25" type="curve"/>
      <point x="285" y="419" type="line"/>
    </contour>
    <contour>
      <point x="508" y="565" type="line"/>
      <point x="525" y="577"/>
      <point x="533" y="595"/>
      <point x="537" y="612" type="curve"/>
      <point x="525" y="627" type="line"/>
      <point x="2" y="627" type="line"/>
      <point x="-15" y="615"/>
      <point x="-27" y="597"/>
      <point x="-35" y="584" type="curve"/>
      <point x="-15" y="565" type="line"/>
    </contour>
    <contour>
      <point x="244" y="731" type="curve"/>
      <point x="237" y="724" type="line"/>
      <point x="188" y="763"/>
      <point x="139" y="793"/>
      <point x="90" y="808" type="curve" smooth="yes"/>
      <point x="36" y="794"/>
      <point x="0" y="763"/>
      <point x="-22" y="726" type="curve"/>
      <point x="-9" y="683"/>
      <point x="57" y="660"/>
      <point x="105" y="663" type="curve"/>
      <point x="137" y="699" type="line"/>
      <point x="171" y="692"/>
      <point x="203" y="679"/>
      <point x="235" y="663" type="curve"/>
      <point x="281" y="665"/>
      <point x="307" y="691"/>
      <point x="312" y="708" type="curve"/>
      <point x="234" y="891"/>
      <point x="95" y="990"/>
      <point x="20" y="990" type="curve" smooth="yes"/>
      <point x="-34" y="990"/>
      <point x="-97" y="954"/>
      <point x="-122" y="925" type="curve"/>
      <point x="-140" y="855"/>
      <point x="-90" y="814"/>
      <point x="-4" y="782" type="curve"/>
      <point x="89" y="868" type="line"/>
      <point x="152" y="829"/>
      <point x="211" y="784"/>
    </contour>
  </outline>
</glyph>
<glyph name="dvTwo" format="1">
  <advance width="600"/>
  <unicode hex="0968"/>
  <outline>
    <contour>
      <point x="288" y="-77" type="curve"/>
      <point x="375" y="-87"/>
      <point x="450" y="-37"/>
      <point x="449" y="31" type="curve"/>
      <point x="355" y="84"/>
      <point x="268" y="201"/>
      <point x="217" y="352" type="curve"/>
      <point x="160" y="388"/>
      <point x="52" y="347"/>
      <point x="23" y="307" type="curve"/>
      <point x="12" y="265"/>
      <point x="33" y="216"/>
      <point x="95" y="162" type="curve"/>
      <point x="288" y="174"/>
      <point x="598" y="319"/>
      <point x="598" y="461" type="curve" smooth="yes"/>
      <point x="598" y="529"/>
      <point x="478" y="663"/>
      <point x="353" y="663" type="curve" smooth="yes"/>
      <point x="277" y="663"/>
      <point x="199" y="640"/>
      <point x="119" y="580" type="curve"/>
      <point x="102" y="529"/>
      <point x="124" y="477"/>
      <point x="227" y="444" type="curve"/>
      <point x="266" y="486"/>
      <point x="300" y="517"/>
      <point x="347" y="530" type="curve"/>
      <point x="391" y="512"/>
      <point x="426" y="476"/>
      <point x="435" y="438" type="curve"/>
      <point x="375" y="339"/>
      <point x="257" y="295"/>
      <point x="148" y="260" type="curve"/>
      <point x="167" y="167"/>
      <point x="191" y="56"/>
    </contour>
  </outline>
</glyph>
<glyph name="dvFour" format="1">
  <advance width="568"/>
  <unicode hex="096A"/>
  <outline>
    <contour>
      <point x="61" y="539" type="curve"/>
      <point x="209" y="457"/>
      <point x="304" y="356"/>
      <point x="316" y="133" type="curve"/>
      <point x="307" y="124"/>
      <point x="298" y="119"/>
      <point x="290" y="116" type="curve"/>
      <point x="257" y="130"/>
      <point x="232" y="165"/>
      <point x="225" y="193" type="curve"/>
      <point x="311" y="396"/>
      <point x="433" y="478"/>
      <point x="623" y="617" type="curve"/>
      <point x="620" y="641"/>
      <point x="613" y="663"/>
      <point x="583" y="663" type="curve"/>
      <point x="445" y="585"/>
      <point x="202" y="405"/>
      <point x="76" y="206" type="curve"/>
      <point x="65" y="110"/>
      <point x="139" y="25"/>
      <point x="250" y="0" type="curve"/>
      <point x="378" y="33"/>
      <point x="426" y="83"/>
      <point x="448" y="145" type="curve"/>
      <point x="454" y="351"/>
      <point x="357" y="580"/>
      <point x="194" y="663" type="curve"/>
      <point x="120" y="663"/>
      <point x="91" y="624"/>
    </contour>
  </outline>
</glyph>
<glyph name="dvNine" format="1">
  <advance width="542"/>
  <unicode hex="096F"/>
  <outline>
    <contour>
      <point x="385" y="194" type="curve"/>
      <point x="361" y="257"/>
      <point x="273" y="374"/>
      <point x="245" y="443" type="curve"/>
      <point x="255" y="487"/>
      <point x="292" y="520"/>
      <point x="329" y="524" type="curve"/>
      <point x="346" y="513"/>
      <point x="354" y="460"/>
      <point x="340" y="423" type="curve"/>
      <point x="229" y="348" type="line"/>
      <point x="274" y="298" type="line"/>
      <point x="447" y="393" type="line"/>
      <point x="518" y="526"/>
      <point x="476" y="663"/>
      <point x="325" y="663" type="curve" smooth="yes"/>
      <point x="223" y="663"/>
      <point x="79" y="539"/>
      <point x="79" y="461" type="curve" smooth="yes"/>
      <point x="79" y="388"/>
      <point x="210" y="263"/>
      <point x="255" y="152" type="curve"/>
      <point x="251" y="133" type="line"/>
      <point x="213" y="74"/>
      <point x="123" y="22"/>
      <point x="33" y="-17" type="curve"/>
      <point x="17" y="-44"/>
      <point x="33" y="-89"/>
      <point x="81" y="-94" type="curve"/>
      <point x="107" y="-88"/>
      <point x="260" y="-10"/>
      <point x="354" y="64" type="curve"/>
      <point x="393" y="108"/>
      <point x="404" y="156"/>
    </contour>
  </outline>
</glyph>
<glyph name="dvCH_VA" format="1">
  <advance width="870"/>
  <outline>
    <contour>
      <point x="428" y="-285" type="move" name="blwm"/>
    </contour>
    <contour>
      <point x="581" y="628" type="move" name="abvm_Ekaar"/>
    </contour>
    <contour>
      <point x="978" y="565" type="line"/>
      <point x="995" y="577"/>
      <point x="1003" y="595"/>
      <point x="1007" y="612" type="curve"/>
      <point x="995" y="627" type="line"/>
      <point x="5" y="627" type="line"/>
      <point x="-13" y="615"/>
      <point x="-26" y="597"/>
      <point x="-34" y="584" type="curve"/>
      <point x="-13" y="565" type="line"/>
    </contour>
    <contour>
      <point x="703" y="83" type="curve"/>
      <point x="677" y="241"/>
      <point x="574" y="352"/>
      <point x="593" y="438" type="curve"/>
      <point x="598" y="447"/>
      <point x="605" y="453"/>
      <point x="613" y="455" type="curve"/>
      <point x="629" y="452"/>
      <point x="664" y="433"/>
      <point x="677" y="408" type="curve"/>
      <point x="627" y="321"/>
      <point x="489" y="216"/>
      <point x="309" y="175" type="curve"/>
      <point x="302" y="184" type="line"/>
      <point x="334" y="228"/>
      <point x="369" y="260"/>
      <point x="417" y="289" type="curve"/>
      <point x="433" y="392"/>
      <point x="375" y="423"/>
      <point x="321" y="450" type="curve"/>
      <point x="298" y="442"/>
      <point x="267" y="436"/>
      <point x="239" y="430" type="curve"/>
      <point x="234" y="439" type="line"/>
      <point x="286" y="483"/>
      <point x="361" y="535"/>
      <point x="456" y="565" type="curve"/>
      <point x="403" y="618" type="line"/>
      <point x="251" y="595"/>
      <point x="142" y="548"/>
      <point x="48" y="479" type="curve"/>
      <point x="15" y="411"/>
      <point x="69" y="345"/>
      <point x="147" y="309" type="curve"/>
      <point x="189" y="323"/>
      <point x="233" y="337"/>
      <point x="264" y="349" type="curve"/>
      <point x="270" y="338" type="line"/>
      <point x="197" y="297"/>
      <point x="100" y="238"/>
      <point x="98" y="188" type="curve"/>
      <point x="95" y="110"/>
      <point x="171" y="56"/>
      <point x="260" y="34" type="curve"/>
      <point x="500" y="87"/>
      <point x="807" y="316"/>
      <point x="811" y="413" type="curve"/>
      <point x="813" y="485"/>
      <point x="696" y="566"/>
      <point x="618" y="586" type="curve"/>
      <point x="561" y="581"/>
      <point x="494" y="536"/>
      <point x="456" y="483" type="curve"/>
      <point x="430" y="324"/>
      <point x="543" y="275"/>
      <point x="579" y="89" type="curve"/>
      <point x="549" y="-15"/>
      <point x="500" y="-164"/>
      <point x="437" y="-274" type="curve"/>
      <point x="441" y="-319"/>
      <point x="489" y="-337"/>
      <point x="555" y="-333" type="curve"/>
      <point x="630" y="-177"/>
      <point x="672" y="-27"/>
    </contour>
    <contour>
      <point x="438" y="54" type="curve"/>
      <point x="309" y="54"/>
      <point x="168" y="-60"/>
      <point x="160" y="-169" type="curve"/>
      <point x="155" y="-253"/>
      <point x="237" y="-306"/>
      <point x="353" y="-306" type="curve"/>
      <point x="422" y="-246"/>
      <point x="485" y="-205"/>
      <point x="545" y="-152" type="curve"/>
      <point x="511" y="-113" type="line"/>
      <point x="469" y="-146"/>
      <point x="404" y="-185"/>
      <point x="366" y="-213" type="curve"/>
      <point x="349" y="-202"/>
      <point x="343" y="-187"/>
      <point x="345" y="-157" type="curve"/>
      <point x="348" y="-117"/>
      <point x="387" y="-66"/>
      <point x="446" y="-39" type="curve"/>
      <point x="473" y="-62"/>
      <point x="495" y="-76"/>
      <point x="516" y="-101" type="curve"/>
      <point x="567" y="-66" type="line"/>
      <point x="538" y="-24"/>
      <point x="457" y="55"/>
    </contour>
  </outline>
</glyph>
<glyph name="dvCH_YA" format="1">
  <advance width="1706"/>
  <outline>
    <contour>
      <point x="978" y="565" type="line"/>
      <point x="995" y="577"/>
      <point x="1003" y="595"/>
      <point x="1007" y="612" type="curve"/>
      <point x="995" y="627" type="line"/>
      <point x="5" y="627" type="line"/>
      <point x="-13" y="615"/>
      <point x="-26" y="597"/>
      <point x="-34" y="584" type="curve"/>
      <point x="-13" y="565" type="line"/>
    </contour>
    <contour>
      <point x="756" y="60" type="curve"/>
      <point x="775" y="180"/>
      <point x="593" y="284"/>
      <point x="599" y="388" type="curve" smooth="yes"/>
      <point x="604" y="397"/>
      <point x="611" y="403"/>
      <point x="619" y="405" type="curve"/>
      <point x="635" y="402"/>
      <point x="670" y="383"/>
      <point x="684" y="358" type="curve" smooth="yes"/>
      <point x="637" y="271"/>
      <point x="463" y="166"/>
      <point x="306" y="145" type="curve"/>
      <point x="297" y="154" type="line"/>
      <point x="337" y="201"/>
      <point x="382" y="247"/>
      <point x="428" y="276" type="curve"/>
      <point x="452" y="345"/>
      <point x="408" y="406"/>
      <point x="321" y="448" type="curve"/>
      <point x="297" y="440"/>
      <point x="254" y="423"/>
      <point x="225" y="417" type="curve"/>
      <point x="218" y="427" type="line"/>
      <point x="269" y="471"/>
      <point x="364" y="535"/>
      <point x="458" y="565" type="curve"/>
      <point x="403" y="618" type="line"/>
      <point x="252" y="595"/>
      <point x="124" y="548"/>
      <point x="33" y="479" type="curve"/>
      <point x="2" y="411"/>
      <point x="64" y="334"/>
      <point x="143" y="298" type="curve"/>
      <point x="187" y="312"/>
      <point x="233" y="327"/>
      <point x="265" y="340" type="curve"/>
      <point x="272" y="328" type="line"/>
      <point x="196" y="285"/>
      <point x="96" y="222"/>
      <point x="96" y="168" type="curve"/>
      <point x="96" y="85"/>
      <point x="178" y="27"/>
      <point x="272" y="4" type="curve"/>
      <point x="478" y="24"/>
      <point x="818" y="266"/>
      <point x="818" y="363" type="curve" smooth="yes"/>
      <point x="818" y="435"/>
      <point x="698" y="516"/>
      <point x="619" y="536" type="curve"/>
      <point x="562" y="531"/>
      <point x="497" y="486"/>
      <point x="461" y="433" type="curve"/>
      <point x="425" y="289"/>
      <point x="604" y="149"/>
      <point x="607" y="94" type="curve"/>
      <point x="572" y="38"/>
      <point x="468" y="-5"/>
      <point x="389" y="-37" type="curve"/>
      <point x="356" y="-95"/>
      <point x="384" y="-159"/>
      <point x="493" y="-208" type="curve"/>
      <point x="618" y="-137"/>
      <point x="740" y="-48"/>
    </contour>
    <contour>
      <point x="1709" y="597" type="line"/>
      <point x="1679" y="651"/>
      <point x="1621" y="673"/>
      <point x="1473" y="658" type="curve"/>
      <point x="1387" y="262" type="line"/>
      <point x="1415" y="231" type="line"/>
      <point x="1368" y="171" type="line"/>
      <point x="1344" y="64" type="line"/>
      <point x="1434" y="-5"/>
      <point x="1568" y="-17"/>
      <point x="1607" y="25" type="curve"/>
      <point x="1611" y="419" type="line"/>
    </contour>
    <contour>
      <point x="1834" y="565" type="line"/>
      <point x="1851" y="577"/>
      <point x="1859" y="595"/>
      <point x="1863" y="612" type="curve"/>
      <point x="1851" y="627" type="line"/>
      <point x="875" y="627" type="line"/>
      <point x="857" y="615"/>
      <point x="844" y="597"/>
      <point x="836" y="584" type="curve"/>
      <point x="857" y="565" type="line"/>
    </contour>
    <contour>
      <point x="963" y="578" type="curve"/>
      <point x="931" y="524"/>
      <point x="978" y="464"/>
      <point x="1074" y="440" type="curve"/>
      <point x="1093" y="450"/>
      <point x="1115" y="459"/>
      <point x="1137" y="465" type="curve" smooth="yes"/>
      <point x="1158" y="470"/>
      <point x="1180" y="471"/>
      <point x="1201" y="466" type="curve" smooth="yes"/>
      <point x="1181" y="344"/>
      <point x="909" y="317"/>
      <point x="909" y="250" type="curve" smooth="yes"/>
      <point x="909" y="170"/>
      <point x="1049" y="81"/>
      <point x="1129" y="81" type="curve" smooth="yes"/>
      <point x="1195" y="81"/>
      <point x="1404" y="220"/>
      <point x="1464" y="318" type="curve"/>
      <point x="1410" y="365" type="line"/>
      <point x="1350" y="298"/>
      <point x="1301" y="267"/>
      <point x="1220" y="225" type="curve" smooth="yes"/>
      <point x="1196" y="227"/>
      <point x="1155" y="250"/>
      <point x="1164" y="284" type="curve" smooth="yes"/>
      <point x="1260" y="338"/>
      <point x="1371" y="425"/>
      <point x="1371" y="500" type="curve" smooth="yes"/>
      <point x="1371" y="551"/>
      <point x="1287" y="627"/>
      <point x="1168" y="627" type="curve" smooth="yes"/>
      <point x="1110" y="627"/>
      <point x="1019" y="615"/>
    </contour>
  </outline>
</glyph>
<glyph name="dvD_YA" format="1">
  <advance width="850"/>
  <outline>
    <contour>
      <point x="827" y="597" type="line"/>
      <point x="797" y="651"/>
      <point x="739" y="673"/>
      <point x="591" y="658" type="curve"/>
      <point x="501" y="242" type="line"/>
      <point x="529" y="211" type="line"/>
      <point x="482" y="151" type="line"/>
      <point x="462" y="64" type="line"/>
      <point x="552" y="-5"/>
      <point x="686" y="-17"/>
      <point x="725" y="25" type="curve"/>
      <point x="729" y="419" type="line"/>
    </contour>
    <contour>
      <point x="952" y="565" type="line"/>
      <point x="969" y="577"/>
      <point x="977" y="595"/>
      <point x="981" y="612" type="curve"/>
      <point x="969" y="627" type="line"/>
      <point x="5" y="627" type="line"/>
      <point x="-13" y="615"/>
      <point x="-26" y="597"/>
      <point x="-34" y="584" type="curve"/>
      <point x="-13" y="565" type="line"/>
    </contour>
    <contour>
      <point x="252" y="381" type="line"/>
      <point x="297" y="398"/>
      <point x="337" y="418"/>
      <point x="372" y="437" type="curve"/>
      <point x="398" y="467"/>
      <point x="415" y="500"/>
      <point x="401" y="533" type="curve"/>
      <point x="369" y="560"/>
      <point x="328" y="585"/>
      <point x="276" y="604" type="curve"/>
      <point x="216" y="566" type="line"/>
      <point x="237" y="551"/>
      <point x="261" y="533"/>
      <point x="268" y="521" type="curve"/>
      <point x="265" y="512" type="line"/>
      <point x="178" y="455"/>
      <point x="48" y="456"/>
      <point x="48" y="398" type="curve" smooth="yes"/>
      <point x="48" y="339"/>
      <point x="101" y="289"/>
      <point x="159" y="268" type="curve"/>
      <point x="212" y="279"/>
      <point x="249" y="296"/>
      <point x="293" y="314" type="curve"/>
      <point x="301" y="305" type="line"/>
      <point x="198" y="245"/>
      <point x="78" y="240"/>
      <point x="78" y="184" type="curve" smooth="yes"/>
      <point x="78" y="129"/>
      <point x="149" y="71"/>
      <point x="268" y="63" type="curve"/>
      <point x="392" y="114"/>
      <point x="523" y="216"/>
      <point x="578" y="298" type="curve"/>
      <point x="524" y="345" type="line"/>
      <point x="469" y="280"/>
      <point x="404" y="228"/>
      <point x="318" y="194" type="curve"/>
      <point x="310" y="205" type="line"/>
      <point x="355" y="229"/>
      <point x="381" y="245"/>
      <point x="418" y="273" type="curve"/>
      <point x="436" y="342"/>
      <point x="394" y="380"/>
      <point x="342" y="403" type="curve"/>
      <point x="313" y="389"/>
      <point x="299" y="385"/>
      <point x="260" y="371" type="curve"/>
    </contour>
  </outline>
</glyph>
<glyph name="dvD_Y_BHA" format="1">
  <advance width="1303"/>
  <outline>
    <contour>
      <point x="573" y="565" type="line"/>
      <point x="590" y="577"/>
      <point x="598" y="595"/>
      <point x="602" y="612" type="curve"/>
      <point x="590" y="627" type="line"/>
      <point x="5" y="627" type="line"/>
      <point x="-13" y="615"/>
      <point x="-26" y="597"/>
      <point x="-34" y="584" type="curve"/>
      <point x="-13" y="565" type="line"/>
    </contour>
    <contour>
      <point x="475" y="293" type="line"/>
      <point x="431" y="252"/>
      <point x="380" y="218"/>
      <point x="318" y="194" type="curve"/>
      <point x="310" y="205" type="line"/>
      <point x="355" y="229"/>
      <point x="381" y="245"/>
      <point x="418" y="273" type="curve"/>
      <point x="436" y="342"/>
      <point x="394" y="380"/>
      <point x="342" y="403" type="curve"/>
      <point x="313" y="389"/>
      <point x="299" y="385"/>
      <point x="260" y="371" type="curve"/>
      <point x="252" y="381" type="line"/>
      <point x="297" y="398"/>
      <point x="337" y="418"/>
      <point x="372" y="437" type="curve"/>
      <point x="398" y="467"/>
      <point x="415" y="500"/>
      <point x="401" y="533" type="curve"/>
      <point x="369" y="560"/>
      <point x="328" y="585"/>
      <point x="276" y="604" type="curve"/>
      <point x="216" y="566" type="line"/>
      <point x="237" y="551"/>
      <point x="261" y="533"/>
      <point x="268" y="521" type="curve"/>
      <point x="265" y="512" type="line"/>
      <point x="178" y="455"/>
      <point x="48" y="456"/>
      <point x="48" y="398" type="curve" smooth="yes"/>
      <point x="48" y="339"/>
      <point x="101" y="289"/>
      <point x="159" y="268" type="curve"/>
      <point x="212" y="279"/>
      <point x="249" y="296"/>
      <point x="293" y="314" type="curve"/>
      <point x="301" y="305" type="line"/>
      <point x="198" y="245"/>
      <point x="78" y="240"/>
      <point x="78" y="184" type="curve" smooth="yes"/>
      <point x="78" y="129"/>
      <point x="149" y="71"/>
      <point x="268" y="63" type="curve"/>
      <point x="362" y="102"/>
      <point x="460" y="170"/>
      <point x="526" y="236" type="curve"/>
    </contour>
    <contour>
      <point x="1273" y="453" type="line"/>
      <point x="1243" y="507"/>
      <point x="1185" y="529"/>
      <point x="1037" y="514" type="curve"/>
      <point x="1003" y="421" type="line"/>
      <point x="1014" y="414" type="line"/>
      <point x="935" y="64" type="line"/>
      <point x="1025" y="-5"/>
      <point x="1159" y="-17"/>
      <point x="1198" y="25" type="curve"/>
      <point x="1186" y="337" type="line"/>
    </contour>
    <contour>
      <point x="1431" y="565" type="line"/>
      <point x="1448" y="577"/>
      <point x="1456" y="595"/>
      <point x="1460" y="612" type="curve"/>
      <point x="1448" y="627" type="line"/>
      <point x="1017" y="627" type="line"/>
      <point x="1000" y="615"/>
      <point x="988" y="597"/>
      <point x="980" y="584" type="curve"/>
      <point x="1000" y="565" type="line"/>
    </contour>
    <contour>
      <point x="749" y="605" type="line"/>
      <point x="749" y="571"/>
      <point x="745" y="522"/>
      <point x="738" y="476" type="curve"/>
      <point x="758" y="442" type="line"/>
      <point x="726" y="409" type="line"/>
      <point x="710" y="328"/>
      <point x="692" y="271"/>
      <point x="664" y="190" type="curve"/>
      <point x="652" y="184" type="line"/>
      <point x="619" y="201"/>
      <point x="589" y="222"/>
      <point x="569" y="265" type="curve"/>
      <point x="553" y="233" type="line"/>
      <point x="728" y="296"/>
      <point x="890" y="367"/>
      <point x="1061" y="448" type="curve"/>
      <point x="1037" y="514" type="line"/>
      <point x="896" y="446"/>
      <point x="657" y="343"/>
      <point x="497" y="306" type="curve"/>
      <point x="455" y="292"/>
      <point x="440" y="236"/>
      <point x="439" y="202" type="curve"/>
      <point x="468" y="150"/>
      <point x="533" y="91"/>
      <point x="598" y="72" type="curve"/>
      <point x="659" y="61"/>
      <point x="760" y="82"/>
      <point x="812" y="131" type="curve"/>
      <point x="880" y="273"/>
      <point x="936" y="557"/>
      <point x="923" y="684" type="curve"/>
      <point x="894" y="736"/>
      <point x="846" y="761"/>
      <point x="762" y="761" type="curve"/>
      <point x="708" y="709"/>
      <point x="584" y="646"/>
      <point x="508" y="617" type="curve"/>
      <point x="480" y="600"/>
      <point x="469" y="560"/>
      <point x="464" y="523" type="curve" smooth="yes"/>
      <point x="491" y="471"/>
      <point x="540" y="426"/>
      <point x="621" y="395" type="curve"/>
      <point x="784" y="463" type="line"/>
      <point x="760" y="509" type="line"/>
      <point x="647" y="482" type="line"/>
      <point x="632" y="487"/>
      <point x="610" y="519"/>
      <point x="604" y="534" type="curve"/>
      <point x="649" y="558"/>
      <point x="702" y="591"/>
      <point x="735" y="611" type="curve"/>
    </contour>
  </outline>
</glyph>
<glyph name="dvD_Y_RA" format="1">
  <advance width="824"/>
  <outline>
    <contour>
      <point x="952" y="565" type="line"/>
      <point x="969" y="577"/>
      <point x="977" y="595"/>
      <point x="981" y="612" type="curve"/>
      <point x="969" y="627" type="line"/>
      <point x="5" y="627" type="line"/>
      <point x="-13" y="615"/>
      <point x="-26" y="597"/>
      <point x="-34" y="584" type="curve"/>
      <point x="-13" y="565" type="line"/>
    </contour>
    <contour>
      <point x="252" y="391" type="line"/>
      <point x="297" y="408"/>
      <point x="337" y="423"/>
      <point x="372" y="442" type="curve"/>
      <point x="398" y="472"/>
      <point x="415" y="500"/>
      <point x="401" y="533" type="curve"/>
      <point x="369" y="560"/>
      <point x="328" y="585"/>
      <point x="276" y="604" type="curve"/>
      <point x="216" y="566" type="line"/>
      <point x="237" y="551"/>
      <point x="261" y="533"/>
      <point x="268" y="521" type="curve"/>
      <point x="265" y="512" type="line"/>
      <point x="152" y="442"/>
      <point x="48" y="456"/>
      <point x="48" y="392" type="curve" smooth="yes"/>
      <point x="48" y="339"/>
      <point x="101" y="294"/>
      <point x="159" y="273" type="curve"/>
      <point x="212" y="284"/>
      <point x="249" y="301"/>
      <point x="293" y="319" type="curve"/>
      <point x="301" y="310" type="line"/>
      <point x="212" y="258"/>
      <point x="97" y="251"/>
      <point x="97" y="191" type="curve" smooth="yes"/>
      <point x="97" y="143"/>
      <point x="177" y="99"/>
      <point x="268" y="88" type="curve"/>
      <point x="433" y="153"/>
      <point x="562" y="268"/>
      <point x="614" y="348" type="curve"/>
      <point x="560" y="395" type="line"/>
      <point x="511" y="314"/>
      <point x="407" y="225"/>
      <point x="318" y="199" type="curve"/>
      <point x="310" y="210" type="line"/>
      <point x="355" y="234"/>
      <point x="381" y="250"/>
      <point x="418" y="278" type="curve"/>
      <point x="436" y="347"/>
      <point x="394" y="390"/>
      <point x="342" y="413" type="curve"/>
      <point x="313" y="399"/>
      <point x="299" y="395"/>
      <point x="260" y="381" type="curve"/>
    </contour>
    <contour>
      <point x="165" y="28" type="curve"/>
      <point x="142" y="-28"/>
      <point x="174" y="-77"/>
      <point x="251" y="-100" type="curve"/>
      <point x="348" y="-40"/>
      <point x="476" y="57"/>
      <point x="533" y="120" type="curve"/>
      <point x="545" y="111" type="line"/>
      <point x="511" y="48" type="line"/>
      <point x="593" y="-5"/>
      <point x="711" y="-15"/>
      <point x="751" y="25" type="curve"/>
      <point x="755" y="419" type="line"/>
      <point x="853" y="597" type="line"/>
      <point x="823" y="651"/>
      <point x="765" y="673"/>
      <point x="617" y="658" type="curve"/>
      <point x="537" y="292" type="line"/>
      <point x="570" y="261" type="line"/>
      <point x="495" y="163"/>
      <point x="337" y="80"/>
    </contour>
  </outline>
</glyph>
<glyph name="dvL_BA" format="1">
  <advance width="1206"/>
  <outline>
    <contour>
      <point x="693" y="565" type="line"/>
      <point x="710" y="577"/>
      <point x="718" y="595"/>
      <point x="722" y="612" type="curve"/>
      <point x="710" y="627" type="line"/>
      <point x="3" y="627" type="line"/>
      <point x="-14" y="615"/>
      <point x="-26" y="597"/>
      <point x="-34" y="584" type="curve"/>
      <point x="-14" y="565" type="line"/>
    </contour>
    <contour>
      <point x="572" y="434" type="line"/>
      <point x="512" y="380"/>
      <point x="469" y="349"/>
      <point x="410" y="309" type="curve"/>
      <point x="400" y="316" type="line"/>
      <point x="423" y="336"/>
      <point x="447" y="357"/>
      <point x="470" y="377" type="curve" smooth="yes"/>
      <point x="464" y="440"/>
      <point x="433" y="482"/>
      <point x="361" y="501" type="curve"/>
      <point x="327" y="509"/>
      <point x="284" y="513"/>
      <point x="230" y="510" type="curve"/>
      <point x="105" y="460"/>
      <point x="-20" y="356"/>
      <point x="-20" y="259" type="curve" smooth="yes"/>
      <point x="-20" y="183"/>
      <point x="92" y="51"/>
      <point x="200" y="0" type="curve"/>
      <point x="324" y="23"/>
      <point x="363" y="109"/>
      <point x="330" y="158" type="curve"/>
      <point x="241" y="192"/>
      <point x="206" y="226"/>
      <point x="180" y="278" type="curve" smooth="yes"/>
      <point x="184" y="325"/>
      <point x="239" y="392"/>
      <point x="264" y="392" type="curve"/>
      <point x="294" y="392"/>
      <point x="315" y="370"/>
      <point x="322" y="347" type="curve" smooth="yes"/>
      <point x="301" y="337"/>
      <point x="281" y="327"/>
      <point x="260" y="317" type="curve"/>
      <point x="249" y="265"/>
      <point x="297" y="206"/>
      <point x="412" y="186" type="curve"/>
      <point x="499" y="257"/>
      <point x="556" y="304"/>
      <point x="619" y="373" type="curve"/>
    </contour>
    <contour>
      <point x="742" y="190" type="curve"/>
      <point x="716" y="206"/>
      <point x="701" y="231"/>
      <point x="701" y="268" type="curve" smooth="yes"/>
      <point x="701" y="329"/>
      <point x="766" y="395"/>
      <point x="824" y="422" type="curve" smooth="yes"/>
      <point x="855" y="401"/>
      <point x="891" y="366"/>
      <point x="916" y="337" type="curve"/>
      <point x="913" y="321" type="line"/>
      <point x="874" y="286"/>
      <point x="805" y="235"/>
    </contour>
    <contour>
      <point x="1334" y="565" type="line"/>
      <point x="1351" y="577"/>
      <point x="1359" y="595"/>
      <point x="1363" y="612" type="curve"/>
      <point x="1351" y="627" type="line"/>
      <point x="452" y="627" type="line"/>
      <point x="435" y="615"/>
      <point x="423" y="597"/>
      <point x="415" y="584" type="curve"/>
      <point x="435" y="565" type="line"/>
    </contour>
    <contour>
      <point x="934" y="424" type="line"/>
      <point x="898" y="460"/>
      <point x="860" y="504"/>
      <point x="804" y="530" type="curve" smooth="yes"/>
      <point x="648" y="530"/>
      <point x="483" y="396"/>
      <point x="483" y="259" type="curve" smooth="yes"/>
      <point x="483" y="140"/>
      <point x="596" y="75"/>
      <point x="740" y="75" type="curve"/>
      <point x="807" y="140"/>
      <point x="873" y="201"/>
      <point x="911" y="239" type="curve"/>
      <point x="921" y="226" type="line"/>
      <point x="864" y="150" type="line"/>
      <point x="843" y="64" type="line"/>
      <point x="933" y="-5"/>
      <point x="1067" y="-17"/>
      <point x="1106" y="25" type="curve"/>
      <point x="1111" y="419" type="line"/>
      <point x="1208" y="597" type="line"/>
      <point x="1178" y="651"/>
      <point x="1120" y="673"/>
      <point x="972" y="658" type="curve"/>
      <point x="941" y="428" type="line"/>
    </contour>
    <contour>
      <point x="868" y="227" type="curve"/>
      <point x="905" y="265" type="line"/>
      <point x="842" y="312"/>
      <point x="785" y="369"/>
      <point x="748" y="410" type="curve"/>
      <point x="720" y="347" type="line"/>
      <point x="750" y="311"/>
      <point x="833" y="247"/>
    </contour>
  </outline>
</glyph>
<glyph name="dvL_DDA" format="1">
  <advance width="1052"/>
  <outline>
    <contour>
      <point x="796" y="8" type="move" name="blwm"/>
    </contour>
    <contour>
      <point x="666" y="628" type="move" name="abvm_Ekaar"/>
    </contour>
    <contour>
      <point x="693" y="565" type="line"/>
      <point x="710" y="577"/>
      <point x="718" y="595"/>
      <point x="722" y="612" type="curve"/>
      <point x="710" y="627" type="line"/>
      <point x="3" y="627" type="line"/>
      <point x="-14" y="615"/>
      <point x="-26" y="597"/>
      <point x="-34" y="584" type="curve"/>
      <point x="-14" y="565" type="line"/>
    </contour>
    <contour>
      <point x="572" y="434" type="line"/>
      <point x="512" y="380"/>
      <point x="469" y="349"/>
      <point x="410" y="309" type="curve"/>
      <point x="400" y="316" type="line"/>
      <point x="423" y="336"/>
      <point x="447" y="357"/>
      <point x="470" y="377" type="curve" smooth="yes"/>
      <point x="464" y="440"/>
      <point x="433" y="482"/>
      <point x="361" y="501" type="curve"/>
      <point x="327" y="509"/>
      <point x="284" y="513"/>
      <point x="230" y="510" type="curve"/>
      <point x="105" y="460"/>
      <point x="-20" y="356"/>
      <point x="-20" y="259" type="curve" smooth="yes"/>
      <point x="-20" y="183"/>
      <point x="92" y="51"/>
      <point x="200" y="0" type="curve"/>
      <point x="324" y="23"/>
      <point x="363" y="109"/>
      <point x="330" y="158" type="curve"/>
      <point x="241" y="192"/>
      <point x="206" y="226"/>
      <point x="180" y="278" type="curve" smooth="yes"/>
      <point x="184" y="325"/>
      <point x="239" y="392"/>
      <point x="264" y="392" type="curve"/>
      <point x="294" y="392"/>
      <point x="315" y="370"/>
      <point x="322" y="347" type="curve" smooth="yes"/>
      <point x="301" y="337"/>
      <point x="281" y="327"/>
      <point x="260" y="317" type="curve"/>
      <point x="249" y="265"/>
      <point x="297" y="206"/>
      <point x="412" y="186" type="curve"/>
      <point x="499" y="257"/>
      <point x="556" y="304"/>
      <point x="619" y="373" type="curve"/>
    </contour>
    <contour>
      <point x="1178" y="565" type="line"/>
      <point x="1195" y="577"/>
      <point x="1203" y="595"/>
      <point x="1207" y="612" type="curve"/>
      <point x="1195" y="627" type="line"/>
      <point x="465" y="627" type="line"/>
      <point x="448" y="615"/>
      <point x="436" y="597"/>
      <point x="428" y="584" type="curve"/>
      <point x="448" y="565" type="line"/>
    </contour>
    <contour>
      <point x="791" y="618" type="curve"/>
      <point x="742" y="580" type="line"/>
      <point x="788" y="561"/>
      <point x="833" y="547"/>
      <point x="860" y="525" type="curve"/>
      <point x="855" y="515" type="line"/>
      <point x="791" y="498"/>
      <point x="725" y="490"/>
      <point x="633" y="485" type="curve"/>
      <point x="538" y="427"/>
      <point x="502" y="333"/>
      <point x="543" y="274" type="curve"/>
      <point x="640" y="253"/>
      <point x="725" y="241"/>
      <point x="816" y="222" type="curve"/>
      <point x="819" y="213" type="line"/>
      <point x="753" y="181"/>
      <point x="610" y="168"/>
      <point x="498" y="178" type="curve"/>
      <point x="453" y="140"/>
      <point x="461" y="61"/>
      <point x="535" y="0" type="curve"/>
      <point x="694" y="0"/>
      <point x="877" y="45"/>
      <point x="951" y="87" type="curve"/>
      <point x="1009" y="190"/>
      <point x="1004" y="251"/>
      <point x="952" y="283" type="curve"/>
      <point x="872" y="294"/>
      <point x="771" y="307"/>
      <point x="700" y="322" type="curve"/>
      <point x="706" y="341" type="line"/>
      <point x="787" y="345"/>
      <point x="860" y="360"/>
      <point x="919" y="378" type="curve"/>
      <point x="970" y="421"/>
      <point x="998" y="501"/>
      <point x="978" y="549" type="curve"/>
      <point x="923" y="590"/>
      <point x="870" y="604"/>
    </contour>
  </outline>
</glyph>
<glyph name="dvL_D_RA" format="1">
  <advance width="1117"/>
  <outline>
    <contour>
      <point x="861" y="-309" type="move" name="blwm"/>
    </contour>
    <contour>
      <point x="678" y="628" type="move" name="abvm_Ekaar"/>
    </contour>
    <contour>
      <point x="693" y="565" type="line"/>
      <point x="710" y="577"/>
      <point x="718" y="595"/>
      <point x="722" y="612" type="curve"/>
      <point x="710" y="627" type="line"/>
      <point x="3" y="627" type="line"/>
      <point x="-14" y="615"/>
      <point x="-26" y="597"/>
      <point x="-34" y="584" type="curve"/>
      <point x="-14" y="565" type="line"/>
    </contour>
    <contour>
      <point x="601" y="380" type="line"/>
      <point x="540" y="353"/>
      <point x="497" y="337"/>
      <point x="410" y="309" type="curve"/>
      <point x="400" y="316" type="line"/>
      <point x="423" y="336"/>
      <point x="447" y="357"/>
      <point x="470" y="377" type="curve" smooth="yes"/>
      <point x="464" y="440"/>
      <point x="433" y="482"/>
      <point x="361" y="501" type="curve"/>
      <point x="327" y="509"/>
      <point x="284" y="513"/>
      <point x="230" y="510" type="curve"/>
      <point x="105" y="460"/>
      <point x="-20" y="356"/>
      <point x="-20" y="259" type="curve" smooth="yes"/>
      <point x="-20" y="183"/>
      <point x="92" y="51"/>
      <point x="200" y="0" type="curve"/>
      <point x="324" y="23"/>
      <point x="363" y="109"/>
      <point x="330" y="158" type="curve"/>
      <point x="241" y="192"/>
      <point x="206" y="226"/>
      <point x="180" y="278" type="curve" smooth="yes"/>
      <point x="184" y="325"/>
      <point x="239" y="392"/>
      <point x="264" y="392" type="curve"/>
      <point x="294" y="392"/>
      <point x="315" y="370"/>
      <point x="322" y="347" type="curve" smooth="yes"/>
      <point x="301" y="337"/>
      <point x="281" y="327"/>
      <point x="260" y="317" type="curve"/>
      <point x="249" y="265"/>
      <point x="299" y="206"/>
      <point x="414" y="186" type="curve"/>
      <point x="504" y="225"/>
      <point x="576" y="258"/>
      <point x="648" y="319" type="curve"/>
    </contour>
    <contour>
      <point x="1244" y="565" type="line"/>
      <point x="1261" y="577"/>
      <point x="1269" y="595"/>
      <point x="1273" y="612" type="curve"/>
      <point x="1261" y="627" type="line"/>
      <point x="486" y="627" type="line"/>
      <point x="469" y="615"/>
      <point x="457" y="597"/>
      <point x="449" y="584" type="curve"/>
      <point x="469" y="565" type="line"/>
    </contour>
    <contour>
      <point x="793" y="618" type="curve"/>
      <point x="744" y="580" type="line"/>
      <point x="794" y="561"/>
      <point x="839" y="527"/>
      <point x="862" y="505" type="curve"/>
      <point x="857" y="495" type="line"/>
      <point x="725" y="380"/>
      <point x="493" y="409"/>
      <point x="493" y="252" type="curve" smooth="yes"/>
      <point x="493" y="133"/>
      <point x="623" y="41"/>
      <point x="790" y="32" type="curve"/>
      <point x="822" y="76"/>
      <point x="846" y="109"/>
      <point x="885" y="150" type="curve"/>
      <point x="900" y="142" type="line"/>
      <point x="873" y="58"/>
      <point x="811" y="-149"/>
      <point x="775" y="-248" type="curve"/>
      <point x="788" y="-304"/>
      <point x="868" y="-343"/>
      <point x="978" y="-330" type="curve"/>
      <point x="993" y="-181"/>
      <point x="1029" y="48"/>
      <point x="1076" y="194" type="curve"/>
      <point x="1022" y="276"/>
      <point x="926" y="294"/>
      <point x="879" y="271" type="curve"/>
      <point x="844" y="230"/>
      <point x="805" y="186"/>
      <point x="757" y="140" type="curve"/>
      <point x="813" y="161" type="line"/>
      <point x="758" y="153"/>
      <point x="697" y="192"/>
      <point x="697" y="250" type="curve"/>
      <point x="792" y="287"/>
      <point x="879" y="334"/>
      <point x="931" y="366" type="curve"/>
      <point x="984" y="408"/>
      <point x="1013" y="480"/>
      <point x="990" y="529" type="curve"/>
      <point x="935" y="570"/>
      <point x="872" y="604"/>
    </contour>
    <contour>
      <point x="866" y="8" type="line"/>
      <point x="736" y="-31"/>
      <point x="568" y="-131"/>
      <point x="482" y="-188" type="curve"/>
      <point x="464" y="-242"/>
      <point x="497" y="-291"/>
      <point x="586" y="-308" type="curve"/>
      <point x="649" y="-224"/>
      <point x="821" y="-112"/>
      <point x="903" y="-77" type="curve"/>
    </contour>
  </outline>
</glyph>
<glyph name="dvL_GA" format="1">
  <advance width="1393"/>
  <outline>
    <contour>
      <point x="693" y="565" type="line"/>
      <point x="710" y="577"/>
      <point x="718" y="595"/>
      <point x="722" y="612" type="curve"/>
      <point x="710" y="627" type="line"/>
      <point x="3" y="627" type="line"/>
      <point x="-14" y="615"/>
      <point x="-26" y="597"/>
      <point x="-34" y="584" type="curve"/>
      <point x="-14" y="565" type="line"/>
    </contour>
    <contour>
      <point x="539" y="405" type="line"/>
      <point x="495" y="368"/>
      <point x="458" y="341"/>
      <point x="410" y="309" type="curve"/>
      <point x="400" y="316" type="line"/>
      <point x="423" y="336"/>
      <point x="447" y="357"/>
      <point x="470" y="377" type="curve" smooth="yes"/>
      <point x="464" y="440"/>
      <point x="433" y="482"/>
      <point x="361" y="501" type="curve"/>
      <point x="327" y="509"/>
      <point x="284" y="513"/>
      <point x="230" y="510" type="curve"/>
      <point x="105" y="460"/>
      <point x="-20" y="356"/>
      <point x="-20" y="259" type="curve" smooth="yes"/>
      <point x="-20" y="183"/>
      <point x="92" y="51"/>
      <point x="200" y="0" type="curve"/>
      <point x="324" y="23"/>
      <point x="363" y="109"/>
      <point x="330" y="158" type="curve"/>
      <point x="241" y="192"/>
      <point x="206" y="226"/>
      <point x="180" y="278" type="curve" smooth="yes"/>
      <point x="184" y="325"/>
      <point x="239" y="392"/>
      <point x="264" y="392" type="curve"/>
      <point x="294" y="392"/>
      <point x="315" y="370"/>
      <point x="322" y="347" type="curve" smooth="yes"/>
      <point x="301" y="337"/>
      <point x="281" y="327"/>
      <point x="260" y="317" type="curve"/>
      <point x="249" y="265"/>
      <point x="297" y="206"/>
      <point x="412" y="186" type="curve"/>
      <point x="488" y="248"/>
      <point x="535" y="292"/>
      <point x="589" y="349" type="curve"/>
    </contour>
    <contour>
      <point x="1396" y="597" type="line"/>
      <point x="1366" y="651"/>
      <point x="1308" y="673"/>
      <point x="1160" y="658" type="curve"/>
      <point x="1031" y="64" type="line"/>
      <point x="1121" y="-5"/>
      <point x="1255" y="-17"/>
      <point x="1294" y="25" type="curve"/>
      <point x="1298" y="419" type="line"/>
    </contour>
    <contour>
      <point x="1521" y="565" type="line"/>
      <point x="1538" y="577"/>
      <point x="1546" y="595"/>
      <point x="1550" y="612" type="curve"/>
      <point x="1538" y="627" type="line"/>
      <point x="530" y="627" type="line"/>
      <point x="513" y="615"/>
      <point x="501" y="597"/>
      <point x="493" y="584" type="curve"/>
      <point x="513" y="565" type="line"/>
    </contour>
    <contour>
      <point x="632" y="246" type="line"/>
      <point x="717" y="271"/>
      <point x="809" y="302"/>
      <point x="900" y="337" type="curve"/>
      <point x="870" y="407" type="line"/>
      <point x="773" y="372"/>
      <point x="672" y="342"/>
      <point x="572" y="320" type="curve"/>
      <point x="541" y="297"/>
      <point x="523" y="254"/>
      <point x="518" y="209" type="curve"/>
      <point x="548" y="141"/>
      <point x="614" y="85"/>
      <point x="693" y="63" type="curve"/>
      <point x="774" y="63"/>
      <point x="865" y="83"/>
      <point x="913" y="141" type="curve"/>
      <point x="970" y="253"/>
      <point x="1009" y="474"/>
      <point x="998" y="614" type="curve"/>
      <point x="766" y="583" type="line"/>
      <point x="811" y="486" type="line"/>
      <point x="818" y="384"/>
      <point x="797" y="271"/>
      <point x="757" y="190" type="curve"/>
      <point x="747" y="186" type="line"/>
      <point x="711" y="204"/>
      <point x="678" y="231"/>
      <point x="659" y="271" type="curve"/>
    </contour>
  </outline>
</glyph>
<glyph name="dvL_HA" format="1">
  <advance width="1047"/>
  <outline>
    <contour>
      <point x="796" y="8" type="move" name="blwm"/>
    </contour>
    <contour>
      <point x="654" y="628" type="move" name="abvm_Ekaar"/>
    </contour>
    <contour>
      <point x="400" y="316" type="line"/>
      <point x="423" y="336"/>
      <point x="447" y="357"/>
      <point x="470" y="377" type="curve" smooth="yes"/>
      <point x="464" y="440"/>
      <point x="433" y="482"/>
      <point x="361" y="501" type="curve"/>
      <point x="327" y="509"/>
      <point x="284" y="513"/>
      <point x="230" y="510" type="curve"/>
      <point x="105" y="460"/>
      <point x="-20" y="356"/>
      <point x="-20" y="259" type="curve" smooth="yes"/>
      <point x="-20" y="183"/>
      <point x="92" y="51"/>
      <point x="200" y="0" type="curve"/>
      <point x="324" y="23"/>
      <point x="363" y="109"/>
      <point x="330" y="158" type="curve"/>
      <point x="241" y="192"/>
      <point x="206" y="226"/>
      <point x="180" y="278" type="curve" smooth="yes"/>
      <point x="184" y="325"/>
      <point x="239" y="392"/>
      <point x="264" y="392" type="curve"/>
      <point x="294" y="392"/>
      <point x="315" y="370"/>
      <point x="322" y="347" type="curve" smooth="yes"/>
      <point x="301" y="337"/>
      <point x="281" y="327"/>
      <point x="260" y="317" type="curve"/>
      <point x="249" y="265"/>
      <point x="297" y="206"/>
      <point x="412" y="186" type="curve"/>
      <point x="499" y="257"/>
      <point x="578" y="328"/>
      <point x="641" y="397" type="curve"/>
      <point x="594" y="458" type="line"/>
      <point x="538" y="401"/>
      <point x="471" y="347"/>
      <point x="410" y="309" type="curve"/>
    </contour>
    <contour>
      <point x="693" y="565" type="line"/>
      <point x="710" y="577"/>
      <point x="718" y="595"/>
      <point x="722" y="612" type="curve"/>
      <point x="710" y="627" type="line"/>
      <point x="3" y="627" type="line"/>
      <point x="-14" y="615"/>
      <point x="-26" y="597"/>
      <point x="-34" y="584" type="curve"/>
      <point x="-14" y="565" type="line"/>
    </contour>
    <contour>
      <point x="1179" y="565" type="line"/>
      <point x="1196" y="577"/>
      <point x="1204" y="595"/>
      <point x="1208" y="612" type="curve"/>
      <point x="1196" y="627" type="line"/>
      <point x="479" y="627" type="line"/>
      <point x="462" y="615"/>
      <point x="450" y="597"/>
      <point x="442" y="584" type="curve"/>
      <point x="462" y="565" type="line"/>
    </contour>
    <contour>
      <point x="840" y="605" type="curve"/>
      <point x="791" y="567" type="line"/>
      <point x="830" y="548"/>
      <point x="839" y="542"/>
      <point x="866" y="520" type="curve"/>
      <point x="861" y="510" type="line"/>
      <point x="801" y="490"/>
      <point x="713" y="469"/>
      <point x="595" y="458" type="curve"/>
      <point x="575" y="431"/>
      <point x="560" y="380"/>
      <point x="585" y="338" type="curve"/>
      <point x="599" y="314"/>
      <point x="625" y="293"/>
      <point x="670" y="281" type="curve"/>
      <point x="668" y="272" type="line"/>
      <point x="548" y="261"/>
      <point x="448" y="181"/>
      <point x="448" y="98" type="curve" smooth="yes"/>
      <point x="448" y="3"/>
      <point x="563" y="-88"/>
      <point x="678" y="-115" type="curve"/>
      <point x="795" y="-115"/>
      <point x="878" y="-80"/>
      <point x="943" y="-20" type="curve"/>
      <point x="943" y="38"/>
      <point x="899" y="78"/>
      <point x="842" y="83" type="curve"/>
      <point x="799" y="36"/>
      <point x="753" y="9"/>
      <point x="699" y="-8" type="curve"/>
      <point x="629" y="30"/>
      <point x="611" y="64"/>
      <point x="614" y="104" type="curve"/>
      <point x="637" y="151"/>
      <point x="683" y="188"/>
      <point x="726" y="201" type="curve" smooth="yes"/>
      <point x="735" y="197"/>
      <point x="742" y="191"/>
      <point x="746" y="180" type="curve" smooth="yes"/>
      <point x="732" y="170"/>
      <point x="718" y="161"/>
      <point x="706" y="154" type="curve"/>
      <point x="708" y="122"/>
      <point x="773" y="88"/>
      <point x="851" y="107" type="curve"/>
      <point x="885" y="146"/>
      <point x="900" y="191"/>
      <point x="900" y="230" type="curve" smooth="yes"/>
      <point x="900" y="281"/>
      <point x="827" y="304"/>
      <point x="732" y="321" type="curve"/>
      <point x="734" y="327" type="line"/>
      <point x="808" y="334"/>
      <point x="857" y="346"/>
      <point x="925" y="373" type="curve"/>
      <point x="976" y="416"/>
      <point x="1004" y="496"/>
      <point x="984" y="544" type="curve"/>
      <point x="951" y="577"/>
      <point x="902" y="591"/>
    </contour>
  </outline>
</glyph>
<glyph name="dvL_MA" format="1">
  <advance width="1371"/>
  <outline>
    <contour>
      <point x="693" y="565" type="line"/>
      <point x="710" y="577"/>
      <point x="718" y="595"/>
      <point x="722" y="612" type="curve"/>
      <point x="710" y="627" type="line"/>
      <point x="3" y="627" type="line"/>
      <point x="-14" y="615"/>
      <point x="-26" y="597"/>
      <point x="-34" y="584" type="curve"/>
      <point x="-14" y="565" type="line"/>
    </contour>
    <contour>
      <point x="561" y="324" type="line"/>
      <point x="509" y="313"/>
      <point x="462" y="309"/>
      <point x="410" y="309" type="curve"/>
      <point x="400" y="316" type="line"/>
      <point x="423" y="336"/>
      <point x="447" y="357"/>
      <point x="470" y="377" type="curve" smooth="yes"/>
      <point x="464" y="440"/>
      <point x="433" y="482"/>
      <point x="361" y="501" type="curve"/>
      <point x="327" y="509"/>
      <point x="284" y="513"/>
      <point x="230" y="510" type="curve"/>
      <point x="105" y="460"/>
      <point x="-20" y="356"/>
      <point x="-20" y="259" type="curve" smooth="yes"/>
      <point x="-20" y="183"/>
      <point x="92" y="51"/>
      <point x="200" y="0" type="curve"/>
      <point x="324" y="23"/>
      <point x="363" y="109"/>
      <point x="330" y="158" type="curve"/>
      <point x="241" y="192"/>
      <point x="206" y="226"/>
      <point x="180" y="278" type="curve" smooth="yes"/>
      <point x="184" y="325"/>
      <point x="239" y="392"/>
      <point x="264" y="392" type="curve"/>
      <point x="294" y="392"/>
      <point x="315" y="370"/>
      <point x="322" y="347" type="curve" smooth="yes"/>
      <point x="301" y="337"/>
      <point x="281" y="327"/>
      <point x="260" y="317" type="curve"/>
      <point x="249" y="265"/>
      <point x="298" y="205"/>
      <point x="413" y="185" type="curve"/>
      <point x="479" y="198"/>
      <point x="542" y="220"/>
      <point x="608" y="263" type="curve"/>
    </contour>
    <contour>
      <point x="1499" y="565" type="line"/>
      <point x="1516" y="577"/>
      <point x="1524" y="595"/>
      <point x="1528" y="612" type="curve"/>
      <point x="1516" y="627" type="line"/>
      <point x="505" y="627" type="line"/>
      <point x="488" y="615"/>
      <point x="476" y="597"/>
      <point x="468" y="584" type="curve"/>
      <point x="488" y="565" type="line"/>
    </contour>
    <contour>
      <point x="720" y="184" type="line"/>
      <point x="684" y="201"/>
      <point x="651" y="228"/>
      <point x="632" y="269" type="curve"/>
      <point x="607" y="246" type="line"/>
      <point x="774" y="296"/>
      <point x="967" y="367"/>
      <point x="1129" y="448" type="curve"/>
      <point x="1105" y="514" type="line"/>
      <point x="973" y="446"/>
      <point x="705" y="352"/>
      <point x="561" y="324" type="curve"/>
      <point x="518" y="301"/>
      <point x="507" y="259"/>
      <point x="507" y="201" type="curve"/>
      <point x="538" y="146"/>
      <point x="603" y="91"/>
      <point x="666" y="72" type="curve"/>
      <point x="738" y="62"/>
      <point x="844" y="83"/>
      <point x="888" y="137" type="curve"/>
      <point x="944" y="244"/>
      <point x="979" y="467"/>
      <point x="973" y="612" type="curve"/>
      <point x="741" y="583" type="line"/>
      <point x="784" y="475" type="line"/>
      <point x="791" y="375"/>
      <point x="766" y="265"/>
      <point x="732" y="190" type="curve"/>
    </contour>
    <contour>
      <point x="1341" y="453" type="line"/>
      <point x="1311" y="507"/>
      <point x="1253" y="529"/>
      <point x="1105" y="514" type="curve"/>
      <point x="1071" y="421" type="line"/>
      <point x="1082" y="414" type="line"/>
      <point x="1003" y="64" type="line"/>
      <point x="1093" y="-5"/>
      <point x="1227" y="-17"/>
      <point x="1266" y="25" type="curve"/>
      <point x="1254" y="337" type="line"/>
    </contour>
  </outline>
</glyph>
<glyph name="dvL_TA" format="1">
  <advance width="1198"/>
  <outline>
    <contour>
      <point x="693" y="565" type="line"/>
      <point x="710" y="577"/>
      <point x="718" y="595"/>
      <point x="722" y="612" type="curve"/>
      <point x="710" y="627" type="line"/>
      <point x="3" y="627" type="line"/>
      <point x="-14" y="615"/>
      <point x="-26" y="597"/>
      <point x="-34" y="584" type="curve"/>
      <point x="-14" y="565" type="line"/>
    </contour>
    <contour>
      <point x="582" y="374" type="line"/>
      <point x="533" y="351"/>
      <point x="482" y="323"/>
      <point x="410" y="309" type="curve"/>
      <point x="400" y="316" type="line"/>
      <point x="423" y="336"/>
      <point x="447" y="357"/>
      <point x="470" y="377" type="curve" smooth="yes"/>
      <point x="464" y="440"/>
      <point x="433" y="482"/>
      <point x="361" y="501" type="curve"/>
      <point x="327" y="509"/>
      <point x="284" y="513"/>
      <point x="230" y="510" type="curve"/>
      <point x="105" y="460"/>
      <point x="-20" y="356"/>
      <point x="-20" y="259" type="curve" smooth="yes"/>
      <point x="-20" y="183"/>
      <point x="92" y="51"/>
      <point x="200" y="0" type="curve"/>
      <point x="324" y="23"/>
      <point x="363" y="109"/>
      <point x="330" y="158" type="curve"/>
      <point x="241" y="192"/>
      <point x="206" y="226"/>
      <point x="180" y="278" type="curve" smooth="yes"/>
      <point x="184" y="325"/>
      <point x="239" y="392"/>
      <point x="264" y="392" type="curve"/>
      <point x="294" y="392"/>
      <point x="315" y="370"/>
      <point x="322" y="347" type="curve" smooth="yes"/>
      <point x="301" y="337"/>
      <point x="281" y="327"/>
      <point x="260" y="317" type="curve"/>
      <point x="249" y="265"/>
      <point x="297" y="206"/>
      <point x="412" y="186" type="curve"/>
      <point x="475" y="207"/>
      <point x="552" y="248"/>
      <point x="629" y="313" type="curve"/>
    </contour>
    <contour>
      <point x="1201" y="597" type="line"/>
      <point x="1171" y="651"/>
      <point x="1113" y="673"/>
      <point x="965" y="658" type="curve"/>
      <point x="904" y="378" type="line"/>
      <point x="923" y="344" type="line"/>
      <point x="886" y="292" type="line"/>
      <point x="836" y="64" type="line"/>
      <point x="926" y="-5"/>
      <point x="1060" y="-17"/>
      <point x="1099" y="25" type="curve"/>
      <point x="1103" y="419" type="line"/>
    </contour>
    <contour>
      <point x="1326" y="565" type="line"/>
      <point x="1343" y="577"/>
      <point x="1351" y="595"/>
      <point x="1355" y="612" type="curve"/>
      <point x="1343" y="627" type="line"/>
      <point x="479" y="627" type="line"/>
      <point x="462" y="615"/>
      <point x="450" y="597"/>
      <point x="442" y="584" type="curve"/>
      <point x="462" y="565" type="line"/>
    </contour>
    <contour>
      <point x="921" y="455" type="line"/>
      <point x="830" y="400"/>
      <point x="703" y="373"/>
      <point x="584" y="376" type="curve"/>
      <point x="533" y="354"/>
      <point x="512" y="306"/>
      <point x="489" y="217" type="curve"/>
      <point x="512" y="148"/>
      <point x="589" y="63"/>
      <point x="687" y="0" type="curve"/>
      <point x="744" y="23"/>
      <point x="773" y="54"/>
      <point x="768" y="93" type="curve"/>
      <point x="722" y="147"/>
      <point x="702" y="177"/>
      <point x="686" y="222" type="curve"/>
      <point x="688" y="236"/>
      <point x="694" y="249"/>
      <point x="702" y="259" type="curve"/>
      <point x="779" y="281"/>
      <point x="871" y="320"/>
      <point x="956" y="383" type="curve"/>
    </contour>
  </outline>
</glyph>
<glyph name="dvL_THA" format="1">
  <advance width="1270"/>
  <outline>
    <contour>
      <point x="623" y="565" type="line"/>
      <point x="640" y="577"/>
      <point x="648" y="595"/>
      <point x="652" y="612" type="curve"/>
      <point x="640" y="627" type="line"/>
      <point x="3" y="627" type="line"/>
      <point x="-14" y="615"/>
      <point x="-26" y="597"/>
      <point x="-34" y="584" type="curve"/>
      <point x="-14" y="565" type="line"/>
    </contour>
    <contour>
      <point x="625" y="361" type="line"/>
      <point x="544" y="320"/>
      <point x="467" y="309"/>
      <point x="410" y="309" type="curve"/>
      <point x="400" y="316" type="line"/>
      <point x="423" y="336"/>
      <point x="447" y="357"/>
      <point x="470" y="377" type="curve" smooth="yes"/>
      <point x="464" y="440"/>
      <point x="433" y="482"/>
      <point x="361" y="501" type="curve"/>
      <point x="327" y="509"/>
      <point x="284" y="513"/>
      <point x="230" y="510" type="curve"/>
      <point x="105" y="460"/>
      <point x="-20" y="356"/>
      <point x="-20" y="259" type="curve" smooth="yes"/>
      <point x="-20" y="183"/>
      <point x="92" y="51"/>
      <point x="200" y="0" type="curve"/>
      <point x="324" y="23"/>
      <point x="363" y="109"/>
      <point x="330" y="158" type="curve"/>
      <point x="241" y="192"/>
      <point x="206" y="226"/>
      <point x="180" y="278" type="curve" smooth="yes"/>
      <point x="184" y="325"/>
      <point x="239" y="392"/>
      <point x="264" y="392" type="curve"/>
      <point x="294" y="392"/>
      <point x="315" y="370"/>
      <point x="322" y="347" type="curve" smooth="yes"/>
      <point x="301" y="337"/>
      <point x="281" y="327"/>
      <point x="260" y="317" type="curve"/>
      <point x="249" y="265"/>
      <point x="297" y="206"/>
      <point x="412" y="186" type="curve"/>
      <point x="483" y="202"/>
      <point x="592" y="238"/>
      <point x="672" y="300" type="curve"/>
    </contour>
    <contour>
      <point x="1273" y="597" type="line"/>
      <point x="1243" y="651"/>
      <point x="1185" y="673"/>
      <point x="1037" y="658" type="curve"/>
      <point x="951" y="262" type="line"/>
      <point x="979" y="231" type="line"/>
      <point x="932" y="171" type="line"/>
      <point x="908" y="64" type="line"/>
      <point x="998" y="-5"/>
      <point x="1132" y="-17"/>
      <point x="1171" y="25" type="curve"/>
      <point x="1175" y="419" type="line"/>
    </contour>
    <contour>
      <point x="1398" y="565" type="line"/>
      <point x="1415" y="577"/>
      <point x="1423" y="595"/>
      <point x="1427" y="612" type="curve"/>
      <point x="1415" y="627" type="line"/>
      <point x="993" y="627" type="line"/>
      <point x="975" y="615"/>
      <point x="962" y="597"/>
      <point x="954" y="584" type="curve"/>
      <point x="975" y="565" type="line"/>
    </contour>
    <contour>
      <point x="915" y="559" type="curve"/>
      <point x="915" y="619"/>
      <point x="828" y="744"/>
      <point x="728" y="761" type="curve" smooth="yes"/>
      <point x="635" y="749"/>
      <point x="535" y="672"/>
      <point x="513" y="577" type="curve" smooth="yes"/>
      <point x="531" y="511"/>
      <point x="565" y="474"/>
      <point x="624" y="434" type="curve"/>
      <point x="809" y="403" type="line"/>
      <point x="819" y="449" type="line"/>
      <point x="686" y="496" type="line"/>
      <point x="669" y="515"/>
      <point x="657" y="542"/>
      <point x="657" y="559" type="curve" smooth="yes"/>
      <point x="657" y="581"/>
      <point x="694" y="614"/>
      <point x="724" y="625" type="curve" smooth="yes"/>
      <point x="761" y="599"/>
      <point x="766" y="564"/>
      <point x="766" y="529" type="curve" smooth="yes"/>
      <point x="766" y="363"/>
      <point x="473" y="327"/>
      <point x="473" y="266" type="curve" smooth="yes"/>
      <point x="473" y="175"/>
      <point x="613" y="92"/>
      <point x="704" y="92" type="curve" smooth="yes"/>
      <point x="770" y="92"/>
      <point x="968" y="220"/>
      <point x="1028" y="318" type="curve"/>
      <point x="974" y="365" type="line"/>
      <point x="914" y="302"/>
      <point x="857" y="266"/>
      <point x="784" y="236" type="curve" smooth="yes"/>
      <point x="760" y="238"/>
      <point x="719" y="261"/>
      <point x="728" y="295" type="curve" smooth="yes"/>
      <point x="839" y="366"/>
      <point x="915" y="447"/>
    </contour>
  </outline>
</glyph>
<glyph name="dvL_TH_YA" format="1">
  <advance width="1710"/>
  <outline>
    <contour>
      <point x="623" y="565" type="line"/>
      <point x="640" y="577"/>
      <point x="648" y="595"/>
      <point x="652" y="612" type="curve"/>
      <point x="640" y="627" type="line"/>
      <point x="3" y="627" type="line"/>
      <point x="-14" y="615"/>
      <point x="-26" y="597"/>
      <point x="-34" y="584" type="curve"/>
      <point x="-14" y="565" type="line"/>
    </contour>
    <contour>
      <point x="625" y="361" type="line"/>
      <point x="544" y="320"/>
      <point x="467" y="309"/>
      <point x="410" y="309" type="curve"/>
      <point x="400" y="316" type="line"/>
      <point x="423" y="336"/>
      <point x="447" y="357"/>
      <point x="470" y="377" type="curve" smooth="yes"/>
      <point x="464" y="440"/>
      <point x="433" y="482"/>
      <point x="361" y="501" type="curve"/>
      <point x="327" y="509"/>
      <point x="284" y="513"/>
      <point x="230" y="510" type="curve"/>
      <point x="105" y="460"/>
      <point x="-20" y="356"/>
      <point x="-20" y="259" type="curve" smooth="yes"/>
      <point x="-20" y="183"/>
      <point x="92" y="51"/>
      <point x="200" y="0" type="curve"/>
      <point x="324" y="23"/>
      <point x="363" y="109"/>
      <point x="330" y="158" type="curve"/>
      <point x="241" y="192"/>
      <point x="206" y="226"/>
      <point x="180" y="278" type="curve" smooth="yes"/>
      <point x="184" y="325"/>
      <point x="239" y="392"/>
      <point x="264" y="392" type="curve"/>
      <point x="294" y="392"/>
      <point x="315" y="370"/>
      <point x="322" y="347" type="curve" smooth="yes"/>
      <point x="301" y="337"/>
      <point x="281" y="327"/>
      <point x="260" y="317" type="curve"/>
      <point x="249" y="265"/>
      <point x="297" y="206"/>
      <point x="412" y="186" type="curve"/>
      <point x="483" y="202"/>
      <point x="592" y="238"/>
      <point x="672" y="300" type="curve"/>
    </contour>
    <contour>
      <point x="914" y="559" type="curve"/>
      <point x="914" y="619"/>
      <point x="827" y="744"/>
      <point x="727" y="761" type="curve" smooth="yes"/>
      <point x="634" y="749"/>
      <point x="534" y="672"/>
      <point x="512" y="577" type="curve" smooth="yes"/>
      <point x="530" y="511"/>
      <point x="564" y="474"/>
      <point x="623" y="434" type="curve"/>
      <point x="808" y="403" type="line"/>
      <point x="818" y="449" type="line"/>
      <point x="685" y="496" type="line"/>
      <point x="668" y="515"/>
      <point x="656" y="542"/>
      <point x="656" y="559" type="curve" smooth="yes"/>
      <point x="656" y="581"/>
      <point x="693" y="614"/>
      <point x="723" y="625" type="curve" smooth="yes"/>
      <point x="760" y="599"/>
      <point x="765" y="564"/>
      <point x="765" y="529" type="curve" smooth="yes"/>
      <point x="765" y="363"/>
      <point x="472" y="327"/>
      <point x="472" y="266" type="curve" smooth="yes"/>
      <point x="472" y="175"/>
      <point x="612" y="92"/>
      <point x="703" y="92" type="curve" smooth="yes"/>
      <point x="770" y="92"/>
      <point x="943" y="181"/>
      <point x="1015" y="244" type="curve"/>
      <point x="974" y="304" type="line"/>
      <point x="908" y="268"/>
      <point x="845" y="249"/>
      <point x="783" y="236" type="curve" smooth="yes"/>
      <point x="759" y="238"/>
      <point x="718" y="261"/>
      <point x="727" y="295" type="curve" smooth="yes"/>
      <point x="838" y="366"/>
      <point x="914" y="447"/>
    </contour>
    <contour>
      <point x="1713" y="597" type="line"/>
      <point x="1683" y="651"/>
      <point x="1625" y="673"/>
      <point x="1477" y="658" type="curve"/>
      <point x="1391" y="262" type="line"/>
      <point x="1419" y="231" type="line"/>
      <point x="1372" y="171" type="line"/>
      <point x="1348" y="64" type="line"/>
      <point x="1438" y="-5"/>
      <point x="1572" y="-17"/>
      <point x="1611" y="25" type="curve"/>
      <point x="1615" y="419" type="line"/>
    </contour>
    <contour>
      <point x="1838" y="565" type="line"/>
      <point x="1855" y="577"/>
      <point x="1863" y="595"/>
      <point x="1867" y="612" type="curve"/>
      <point x="1855" y="627" type="line"/>
      <point x="879" y="627" type="line"/>
      <point x="861" y="615"/>
      <point x="848" y="597"/>
      <point x="840" y="584" type="curve"/>
      <point x="861" y="565" type="line"/>
    </contour>
    <contour>
      <point x="967" y="578" type="curve"/>
      <point x="935" y="524"/>
      <point x="982" y="464"/>
      <point x="1078" y="440" type="curve"/>
      <point x="1097" y="450"/>
      <point x="1119" y="459"/>
      <point x="1141" y="465" type="curve" smooth="yes"/>
      <point x="1162" y="470"/>
      <point x="1184" y="471"/>
      <point x="1205" y="466" type="curve" smooth="yes"/>
      <point x="1185" y="344"/>
      <point x="913" y="317"/>
      <point x="913" y="250" type="curve" smooth="yes"/>
      <point x="913" y="170"/>
      <point x="1053" y="81"/>
      <point x="1133" y="81" type="curve" smooth="yes"/>
      <point x="1199" y="81"/>
      <point x="1408" y="220"/>
      <point x="1468" y="318" type="curve"/>
      <point x="1414" y="365" type="line"/>
      <point x="1354" y="298"/>
      <point x="1305" y="267"/>
      <point x="1224" y="225" type="curve" smooth="yes"/>
      <point x="1200" y="227"/>
      <point x="1159" y="250"/>
      <point x="1168" y="284" type="curve" smooth="yes"/>
      <point x="1264" y="338"/>
      <point x="1375" y="425"/>
      <point x="1375" y="500" type="curve" smooth="yes"/>
      <point x="1375" y="551"/>
      <point x="1291" y="627"/>
      <point x="1172" y="627" type="curve" smooth="yes"/>
      <point x="1114" y="627"/>
      <point x="1023" y="615"/>
    </contour>
  </outline>
</glyph>
<glyph name="dvL_V_DDA" format="1">
  <advance width="1409"/>
  <outline>
    <contour>
      <point x="1158" y="8" type="move" name="blwm"/>
    </contour>
    <contour>
      <point x="1029" y="628" type="move" name="abvm_Ekaar"/>
    </contour>
    <contour>
      <point x="693" y="565" type="line"/>
      <point x="710" y="577"/>
      <point x="718" y="595"/>
      <point x="722" y="612" type="curve"/>
      <point x="710" y="627" type="line"/>
      <point x="3" y="627" type="line"/>
      <point x="-14" y="615"/>
      <point x="-26" y="597"/>
      <point x="-34" y="584" type="curve"/>
      <point x="-14" y="565" type="line"/>
    </contour>
    <contour>
      <point x="572" y="434" type="line"/>
      <point x="512" y="380"/>
      <point x="469" y="349"/>
      <point x="410" y="309" type="curve"/>
      <point x="400" y="316" type="line"/>
      <point x="423" y="336"/>
      <point x="447" y="357"/>
      <point x="470" y="377" type="curve" smooth="yes"/>
      <point x="464" y="440"/>
      <point x="433" y="482"/>
      <point x="361" y="501" type="curve"/>
      <point x="327" y="509"/>
      <point x="284" y="513"/>
      <point x="230" y="510" type="curve"/>
      <point x="105" y="460"/>
      <point x="-20" y="356"/>
      <point x="-20" y="259" type="curve" smooth="yes"/>
      <point x="-20" y="183"/>
      <point x="92" y="51"/>
      <point x="200" y="0" type="curve"/>
      <point x="324" y="23"/>
      <point x="363" y="109"/>
      <point x="330" y="158" type="curve"/>
      <point x="241" y="192"/>
      <point x="206" y="226"/>
      <point x="180" y="278" type="curve" smooth="yes"/>
      <point x="184" y="325"/>
      <point x="239" y="392"/>
      <point x="264" y="392" type="curve"/>
      <point x="294" y="392"/>
      <point x="315" y="370"/>
      <point x="322" y="347" type="curve" smooth="yes"/>
      <point x="301" y="337"/>
      <point x="281" y="327"/>
      <point x="260" y="317" type="curve"/>
      <point x="249" y="265"/>
      <point x="297" y="206"/>
      <point x="412" y="186" type="curve"/>
      <point x="499" y="257"/>
      <point x="556" y="304"/>
      <point x="619" y="373" type="curve"/>
    </contour>
    <contour>
      <point x="1035" y="565" type="line"/>
      <point x="1052" y="577"/>
      <point x="1060" y="595"/>
      <point x="1064" y="612" type="curve"/>
      <point x="1052" y="627" type="line"/>
      <point x="449" y="627" type="line"/>
      <point x="432" y="615"/>
      <point x="420" y="597"/>
      <point x="412" y="584" type="curve"/>
      <point x="432" y="565" type="line"/>
    </contour>
    <contour>
      <point x="886" y="322" type="line"/>
      <point x="837" y="282"/>
      <point x="777" y="235"/>
      <point x="732" y="201" type="curve"/>
      <point x="709" y="213"/>
      <point x="697" y="235"/>
      <point x="697" y="268" type="curve" smooth="yes"/>
      <point x="697" y="316"/>
      <point x="739" y="378"/>
      <point x="811" y="412" type="curve" smooth="yes"/>
      <point x="836" y="393"/>
      <point x="865" y="363"/>
      <point x="889" y="337" type="curve"/>
      <point x="945" y="379" type="line"/>
      <point x="905" y="431"/>
      <point x="817" y="527"/>
      <point x="795" y="525" type="curve" smooth="yes"/>
      <point x="638" y="525"/>
      <point x="477" y="386"/>
      <point x="477" y="253" type="curve" smooth="yes"/>
      <point x="477" y="151"/>
      <point x="582" y="87"/>
      <point x="723" y="87" type="curve"/>
      <point x="780" y="140"/>
      <point x="877" y="228"/>
      <point x="926" y="275" type="curve"/>
    </contour>
    <contour>
      <point x="1535" y="565" type="line"/>
      <point x="1552" y="577"/>
      <point x="1560" y="595"/>
      <point x="1564" y="612" type="curve"/>
      <point x="1552" y="627" type="line"/>
      <point x="822" y="627" type="line"/>
      <point x="805" y="615"/>
      <point x="793" y="597"/>
      <point x="785" y="584" type="curve"/>
      <point x="805" y="565" type="line"/>
    </contour>
    <contour>
      <point x="1148" y="618" type="curve"/>
      <point x="1099" y="580" type="line"/>
      <point x="1145" y="561"/>
      <point x="1190" y="547"/>
      <point x="1217" y="525" type="curve"/>
      <point x="1212" y="515" type="line"/>
      <point x="1148" y="498"/>
      <point x="1082" y="490"/>
      <point x="990" y="485" type="curve"/>
      <point x="895" y="427"/>
      <point x="859" y="333"/>
      <point x="900" y="274" type="curve"/>
      <point x="997" y="253"/>
      <point x="1082" y="241"/>
      <point x="1173" y="222" type="curve"/>
      <point x="1176" y="213" type="line"/>
      <point x="1110" y="181"/>
      <point x="967" y="168"/>
      <point x="855" y="178" type="curve"/>
      <point x="810" y="140"/>
      <point x="818" y="61"/>
      <point x="892" y="0" type="curve"/>
      <point x="1051" y="0"/>
      <point x="1234" y="45"/>
      <point x="1308" y="87" type="curve"/>
      <point x="1366" y="190"/>
      <point x="1361" y="251"/>
      <point x="1309" y="283" type="curve"/>
      <point x="1229" y="294"/>
      <point x="1128" y="307"/>
      <point x="1057" y="322" type="curve"/>
      <point x="1063" y="341" type="line"/>
      <point x="1144" y="345"/>
      <point x="1217" y="360"/>
      <point x="1276" y="378" type="curve"/>
      <point x="1327" y="421"/>
      <point x="1355" y="501"/>
      <point x="1335" y="549" type="curve"/>
      <point x="1280" y="590"/>
      <point x="1227" y="604"/>
    </contour>
  </outline>
</glyph>
<glyph name="dvL_YA" format="1">
  <advance width="1232"/>
  <outline>
    <contour>
      <point x="693" y="565" type="line"/>
      <point x="710" y="577"/>
      <point x="718" y="595"/>
      <point x="722" y="612" type="curve"/>
      <point x="710" y="627" type="line"/>
      <point x="3" y="627" type="line"/>
      <point x="-14" y="615"/>
      <point x="-26" y="597"/>
      <point x="-34" y="584" type="curve"/>
      <point x="-14" y="565" type="line"/>
    </contour>
    <contour>
      <point x="625" y="361" type="line"/>
      <point x="546" y="320"/>
      <point x="477" y="312"/>
      <point x="410" y="309" type="curve"/>
      <point x="400" y="316" type="line"/>
      <point x="423" y="336"/>
      <point x="447" y="357"/>
      <point x="470" y="377" type="curve" smooth="yes"/>
      <point x="464" y="440"/>
      <point x="433" y="482"/>
      <point x="361" y="501" type="curve"/>
      <point x="327" y="509"/>
      <point x="284" y="513"/>
      <point x="230" y="510" type="curve"/>
      <point x="105" y="460"/>
      <point x="-20" y="356"/>
      <point x="-20" y="259" type="curve" smooth="yes"/>
      <point x="-20" y="183"/>
      <point x="92" y="51"/>
      <point x="200" y="0" type="curve"/>
      <point x="324" y="23"/>
      <point x="363" y="109"/>
      <point x="330" y="158" type="curve"/>
      <point x="241" y="192"/>
      <point x="206" y="226"/>
      <point x="180" y="278" type="curve" smooth="yes"/>
      <point x="184" y="325"/>
      <point x="239" y="392"/>
      <point x="264" y="392" type="curve"/>
      <point x="294" y="392"/>
      <point x="315" y="370"/>
      <point x="322" y="347" type="curve" smooth="yes"/>
      <point x="301" y="337"/>
      <point x="281" y="327"/>
      <point x="260" y="317" type="curve"/>
      <point x="249" y="265"/>
      <point x="297" y="206"/>
      <point x="412" y="186" type="curve"/>
      <point x="521" y="211"/>
      <point x="606" y="253"/>
      <point x="672" y="300" type="curve"/>
    </contour>
    <contour>
      <point x="1235" y="597" type="line"/>
      <point x="1205" y="651"/>
      <point x="1147" y="673"/>
      <point x="999" y="658" type="curve"/>
      <point x="913" y="262" type="line"/>
      <point x="941" y="231" type="line"/>
      <point x="894" y="171" type="line"/>
      <point x="870" y="64" type="line"/>
      <point x="960" y="-5"/>
      <point x="1094" y="-17"/>
      <point x="1133" y="25" type="curve"/>
      <point x="1137" y="419" type="line"/>
    </contour>
    <contour>
      <point x="1360" y="565" type="line"/>
      <point x="1377" y="577"/>
      <point x="1385" y="595"/>
      <point x="1389" y="612" type="curve"/>
      <point x="1377" y="627" type="line"/>
      <point x="401" y="627" type="line"/>
      <point x="383" y="615"/>
      <point x="370" y="597"/>
      <point x="362" y="584" type="curve"/>
      <point x="383" y="565" type="line"/>
    </contour>
    <contour>
      <point x="489" y="578" type="curve"/>
      <point x="457" y="524"/>
      <point x="504" y="464"/>
      <point x="600" y="440" type="curve"/>
      <point x="619" y="450"/>
      <point x="641" y="459"/>
      <point x="663" y="465" type="curve" smooth="yes"/>
      <point x="684" y="470"/>
      <point x="706" y="471"/>
      <point x="727" y="466" type="curve" smooth="yes"/>
      <point x="707" y="344"/>
      <point x="435" y="317"/>
      <point x="435" y="250" type="curve" smooth="yes"/>
      <point x="435" y="170"/>
      <point x="575" y="81"/>
      <point x="655" y="81" type="curve" smooth="yes"/>
      <point x="721" y="81"/>
      <point x="930" y="220"/>
      <point x="990" y="318" type="curve"/>
      <point x="936" y="365" type="line"/>
      <point x="876" y="298"/>
      <point x="827" y="267"/>
      <point x="746" y="225" type="curve" smooth="yes"/>
      <point x="722" y="227"/>
      <point x="681" y="250"/>
      <point x="690" y="284" type="curve" smooth="yes"/>
      <point x="786" y="338"/>
      <point x="897" y="425"/>
      <point x="897" y="500" type="curve" smooth="yes"/>
      <point x="897" y="551"/>
      <point x="813" y="627"/>
      <point x="694" y="627" type="curve" smooth="yes"/>
      <point x="636" y="627"/>
      <point x="545" y="615"/>
    </contour>
  </outline>
</glyph>
<glyph name="dvNN_DDHA" format="1">
  <advance width="1260"/>
  <outline>
    <contour>
      <point x="992" y="8" type="move" name="blwm"/>
    </contour>
    <contour>
      <point x="774" y="628" type="move" name="abvm_Ekaar"/>
    </contour>
    <contour>
      <point x="689" y="612" type="curve"/>
      <point x="677" y="627" type="line"/>
      <point x="232" y="627" type="line"/>
      <point x="97" y="550"/>
      <point x="36" y="434"/>
      <point x="36" y="359" type="curve" smooth="yes"/>
      <point x="36" y="258"/>
      <point x="144" y="114"/>
      <point x="247" y="114" type="curve" smooth="yes"/>
      <point x="366" y="114"/>
      <point x="547" y="244"/>
      <point x="547" y="391" type="curve"/>
      <point x="547" y="442"/>
      <point x="525" y="498"/>
      <point x="494" y="565" type="curve"/>
      <point x="660" y="565" type="line"/>
      <point x="677" y="577"/>
      <point x="685" y="595"/>
    </contour>
    <contour>
      <point x="328" y="565" type="line"/>
      <point x="355" y="479"/>
      <point x="362" y="421"/>
      <point x="362" y="381" type="curve"/>
      <point x="362" y="321"/>
      <point x="306" y="243"/>
      <point x="272" y="243" type="curve" smooth="yes"/>
      <point x="250" y="243"/>
      <point x="230" y="312"/>
      <point x="230" y="345" type="curve" smooth="yes"/>
      <point x="230" y="408"/>
      <point x="273" y="500"/>
      <point x="313" y="565" type="curve"/>
    </contour>
    <contour>
      <point x="1388" y="565" type="line"/>
      <point x="1405" y="577"/>
      <point x="1413" y="595"/>
      <point x="1417" y="612" type="curve"/>
      <point x="1405" y="627" type="line"/>
      <point x="534" y="627" type="line"/>
      <point x="517" y="615"/>
      <point x="505" y="597"/>
      <point x="497" y="584" type="curve"/>
      <point x="517" y="565" type="line"/>
    </contour>
    <contour>
      <point x="890" y="616" type="curve"/>
      <point x="832" y="566" type="line"/>
      <point x="871" y="547"/>
      <point x="907" y="525"/>
      <point x="935" y="492" type="curve"/>
      <point x="932" y="484" type="line"/>
      <point x="837" y="439"/>
      <point x="735" y="406"/>
      <point x="616" y="364" type="curve"/>
      <point x="577" y="336"/>
      <point x="552" y="282"/>
      <point x="553" y="217" type="curve"/>
      <point x="605" y="88"/>
      <point x="743" y="9"/>
      <point x="890" y="0" type="curve" smooth="yes"/>
      <point x="996" y="0"/>
      <point x="1219" y="91"/>
      <point x="1219" y="192" type="curve" smooth="yes"/>
      <point x="1219" y="244"/>
      <point x="1129" y="320"/>
      <point x="986" y="313" type="curve"/>
      <point x="934" y="274"/>
      <point x="815" y="199"/>
      <point x="734" y="146" type="curve"/>
      <point x="783" y="92" type="line"/>
      <point x="848" y="129"/>
      <point x="924" y="174"/>
      <point x="971" y="199" type="curve"/>
      <point x="994" y="193"/>
      <point x="1012" y="186"/>
      <point x="1028" y="176" type="curve"/>
      <point x="1017" y="139"/>
      <point x="963" y="100"/>
      <point x="891" y="90" type="curve"/>
      <point x="815" y="125"/>
      <point x="765" y="182"/>
      <point x="765" y="223" type="curve" smooth="yes"/>
      <point x="765" y="271"/>
      <point x="942" y="322"/>
      <point x="1046" y="379" type="curve"/>
      <point x="1087" y="422"/>
      <point x="1113" y="474"/>
      <point x="1093" y="524" type="curve"/>
      <point x="1024" y="564"/>
      <point x="961" y="588"/>
    </contour>
  </outline>
</glyph>
<glyph name="dvNN_MA" format="1">
  <advance width="1402"/>
  <outline>
    <contour>
      <point x="689" y="612" type="curve"/>
      <point x="677" y="627" type="line"/>
      <point x="232" y="627" type="line"/>
      <point x="97" y="550"/>
      <point x="36" y="434"/>
      <point x="36" y="359" type="curve" smooth="yes"/>
      <point x="36" y="258"/>
      <point x="144" y="114"/>
      <point x="247" y="114" type="curve" smooth="yes"/>
      <point x="366" y="114"/>
      <point x="547" y="244"/>
      <point x="547" y="391" type="curve"/>
      <point x="547" y="442"/>
      <point x="525" y="498"/>
      <point x="494" y="565" type="curve"/>
      <point x="660" y="565" type="line"/>
      <point x="677" y="577"/>
      <point x="685" y="595"/>
    </contour>
    <contour>
      <point x="328" y="565" type="line"/>
      <point x="355" y="479"/>
      <point x="362" y="421"/>
      <point x="362" y="381" type="curve"/>
      <point x="362" y="321"/>
      <point x="306" y="243"/>
      <point x="272" y="243" type="curve" smooth="yes"/>
      <point x="250" y="243"/>
      <point x="230" y="312"/>
      <point x="230" y="345" type="curve" smooth="yes"/>
      <point x="230" y="408"/>
      <point x="273" y="500"/>
      <point x="313" y="565" type="curve"/>
    </contour>
    <contour>
      <point x="1529" y="565" type="line"/>
      <point x="1546" y="577"/>
      <point x="1554" y="595"/>
      <point x="1558" y="612" type="curve"/>
      <point x="1546" y="627" type="line"/>
      <point x="535" y="627" type="line"/>
      <point x="518" y="615"/>
      <point x="506" y="597"/>
      <point x="498" y="584" type="curve"/>
      <point x="518" y="565" type="line"/>
    </contour>
    <contour>
      <point x="750" y="184" type="line"/>
      <point x="714" y="201"/>
      <point x="681" y="228"/>
      <point x="662" y="269" type="curve"/>
      <point x="637" y="246" type="line"/>
      <point x="804" y="296"/>
      <point x="997" y="367"/>
      <point x="1159" y="448" type="curve"/>
      <point x="1135" y="514" type="line"/>
      <point x="1003" y="446"/>
      <point x="735" y="352"/>
      <point x="591" y="324" type="curve"/>
      <point x="548" y="301"/>
      <point x="537" y="259"/>
      <point x="537" y="201" type="curve"/>
      <point x="568" y="146"/>
      <point x="633" y="91"/>
      <point x="696" y="72" type="curve"/>
      <point x="768" y="62"/>
      <point x="874" y="83"/>
      <point x="918" y="137" type="curve"/>
      <point x="974" y="244"/>
      <point x="1009" y="467"/>
      <point x="1003" y="612" type="curve"/>
      <point x="771" y="583" type="line"/>
      <point x="814" y="475" type="line"/>
      <point x="821" y="375"/>
      <point x="796" y="265"/>
      <point x="762" y="190" type="curve"/>
    </contour>
    <contour>
      <point x="1371" y="453" type="line"/>
      <point x="1341" y="507"/>
      <point x="1283" y="529"/>
      <point x="1135" y="514" type="curve"/>
      <point x="1101" y="421" type="line"/>
      <point x="1112" y="414" type="line"/>
      <point x="1033" y="64" type="line"/>
      <point x="1123" y="-5"/>
      <point x="1257" y="-17"/>
      <point x="1296" y="25" type="curve"/>
      <point x="1284" y="337" type="line"/>
    </contour>
  </outline>
</glyph>
<glyph name="dvNN_NNA" format="1">
  <advance width="1496"/>
  <outline>
    <contour>
      <point x="854" y="612" type="curve"/>
      <point x="842" y="627" type="line"/>
      <point x="232" y="627" type="line"/>
      <point x="97" y="550"/>
      <point x="36" y="434"/>
      <point x="36" y="359" type="curve" smooth="yes"/>
      <point x="36" y="258"/>
      <point x="144" y="114"/>
      <point x="247" y="114" type="curve" smooth="yes"/>
      <point x="366" y="114"/>
      <point x="547" y="244"/>
      <point x="547" y="391" type="curve"/>
      <point x="547" y="442"/>
      <point x="525" y="498"/>
      <point x="494" y="565" type="curve"/>
      <point x="825" y="565" type="line"/>
      <point x="842" y="577"/>
      <point x="850" y="595"/>
    </contour>
    <contour>
      <point x="328" y="565" type="line"/>
      <point x="355" y="479"/>
      <point x="362" y="421"/>
      <point x="362" y="381" type="curve"/>
      <point x="362" y="321"/>
      <point x="306" y="243"/>
      <point x="272" y="243" type="curve" smooth="yes"/>
      <point x="250" y="243"/>
      <point x="230" y="312"/>
      <point x="230" y="345" type="curve" smooth="yes"/>
      <point x="230" y="408"/>
      <point x="273" y="500"/>
      <point x="313" y="565" type="curve"/>
    </contour>
    <contour>
      <point x="1653" y="612" type="curve"/>
      <point x="1641" y="627" type="line"/>
      <point x="816" y="627" type="line"/>
      <point x="681" y="550"/>
      <point x="620" y="427"/>
      <point x="620" y="348" type="curve" smooth="yes"/>
      <point x="620" y="258"/>
      <point x="728" y="114"/>
      <point x="831" y="114" type="curve" smooth="yes"/>
      <point x="950" y="114"/>
      <point x="1131" y="244"/>
      <point x="1131" y="391" type="curve"/>
      <point x="1131" y="442"/>
      <point x="1109" y="498"/>
      <point x="1078" y="565" type="curve"/>
      <point x="1624" y="565" type="line"/>
      <point x="1641" y="577"/>
      <point x="1649" y="595"/>
    </contour>
    <contour>
      <point x="912" y="565" type="line"/>
      <point x="933" y="501"/>
      <point x="948" y="449"/>
      <point x="953" y="386" type="curve"/>
      <point x="934" y="301"/>
      <point x="899" y="264"/>
      <point x="851" y="243" type="curve"/>
      <point x="823" y="265"/>
      <point x="808" y="302"/>
      <point x="802" y="357" type="curve"/>
      <point x="820" y="433"/>
      <point x="855" y="498"/>
      <point x="898" y="565" type="curve"/>
    </contour>
    <contour>
      <point x="1499" y="597" type="line"/>
      <point x="1469" y="651"/>
      <point x="1411" y="673"/>
      <point x="1263" y="658" type="curve"/>
      <point x="1134" y="64" type="line"/>
      <point x="1224" y="-5"/>
      <point x="1358" y="-17"/>
      <point x="1397" y="25" type="curve"/>
      <point x="1401" y="419" type="line"/>
    </contour>
  </outline>
</glyph>
<glyph name="dvNN_RA" format="1">
  <advance width="912"/>
  <outline>
    <contour>
      <point x="1069" y="612" type="curve"/>
      <point x="1057" y="627" type="line"/>
      <point x="232" y="627" type="line"/>
      <point x="97" y="550"/>
      <point x="36" y="434"/>
      <point x="36" y="359" type="curve" smooth="yes"/>
      <point x="36" y="258"/>
      <point x="144" y="114"/>
      <point x="247" y="114" type="curve" smooth="yes"/>
      <point x="366" y="114"/>
      <point x="547" y="244"/>
      <point x="547" y="391" type="curve"/>
      <point x="547" y="442"/>
      <point x="525" y="498"/>
      <point x="494" y="565" type="curve"/>
      <point x="1040" y="565" type="line"/>
      <point x="1057" y="577"/>
      <point x="1065" y="595"/>
    </contour>
    <contour>
      <point x="328" y="565" type="line"/>
      <point x="355" y="479"/>
      <point x="362" y="421"/>
      <point x="362" y="381" type="curve"/>
      <point x="362" y="321"/>
      <point x="306" y="243"/>
      <point x="272" y="243" type="curve" smooth="yes"/>
      <point x="250" y="243"/>
      <point x="230" y="312"/>
      <point x="230" y="345" type="curve" smooth="yes"/>
      <point x="230" y="408"/>
      <point x="273" y="500"/>
      <point x="313" y="565" type="curve"/>
    </contour>
    <contour>
      <point x="584" y="223" type="line"/>
      <point x="507" y="158"/>
      <point x="341" y="66"/>
      <point x="227" y="28" type="curve"/>
      <point x="204" y="-28"/>
      <point x="236" y="-77"/>
      <point x="313" y="-100" type="curve"/>
      <point x="410" y="-40"/>
      <point x="538" y="57"/>
      <point x="595" y="120" type="curve"/>
      <point x="607" y="111" type="line"/>
      <point x="573" y="48" type="line"/>
      <point x="655" y="-5"/>
      <point x="773" y="-15"/>
      <point x="813" y="25" type="curve"/>
      <point x="817" y="419" type="line"/>
      <point x="915" y="597" type="line"/>
      <point x="885" y="651"/>
      <point x="827" y="673"/>
      <point x="679" y="658" type="curve"/>
    </contour>
  </outline>
</glyph>
<glyph name="dvNN_R" format="1">
  <advance width="532"/>
  <outline>
    <contour>
      <point x="787" y="612" type="curve"/>
      <point x="775" y="627" type="line"/>
      <point x="232" y="627" type="line"/>
      <point x="97" y="550"/>
      <point x="36" y="434"/>
      <point x="36" y="359" type="curve" smooth="yes"/>
      <point x="36" y="258"/>
      <point x="144" y="114"/>
      <point x="247" y="114" type="curve" smooth="yes"/>
      <point x="366" y="114"/>
      <point x="547" y="244"/>
      <point x="547" y="391" type="curve"/>
      <point x="547" y="442"/>
      <point x="525" y="498"/>
      <point x="494" y="565" type="curve"/>
      <point x="758" y="565" type="line"/>
      <point x="775" y="577"/>
      <point x="783" y="595"/>
    </contour>
    <contour>
      <point x="328" y="565" type="line"/>
      <point x="355" y="479"/>
      <point x="362" y="421"/>
      <point x="362" y="381" type="curve"/>
      <point x="362" y="321"/>
      <point x="306" y="243"/>
      <point x="272" y="243" type="curve" smooth="yes"/>
      <point x="250" y="243"/>
      <point x="230" y="312"/>
      <point x="230" y="345" type="curve" smooth="yes"/>
      <point x="230" y="408"/>
      <point x="273" y="500"/>
      <point x="313" y="565" type="curve"/>
    </contour>
    <contour>
      <point x="606" y="258" type="line"/>
      <point x="544" y="194"/>
      <point x="391" y="72"/>
      <point x="227" y="28" type="curve"/>
      <point x="204" y="-28"/>
      <point x="236" y="-77"/>
      <point x="313" y="-100" type="curve"/>
      <point x="447" y="-18"/>
      <point x="598" y="121"/>
      <point x="651" y="195" type="curve"/>
    </contour>
  </outline>
</glyph>
<glyph name="dvNN_TTHA" format="1">
  <advance width="1190"/>
  <outline>
    <contour>
      <point x="913" y="8" type="move" name="blwm"/>
    </contour>
    <contour>
      <point x="735" y="628" type="move" name="abvm_Ekaar"/>
    </contour>
    <contour>
      <point x="689" y="612" type="curve"/>
      <point x="677" y="627" type="line"/>
      <point x="232" y="627" type="line"/>
      <point x="97" y="550"/>
      <point x="36" y="434"/>
      <point x="36" y="359" type="curve" smooth="yes"/>
      <point x="36" y="258"/>
      <point x="144" y="114"/>
      <point x="247" y="114" type="curve" smooth="yes"/>
      <point x="366" y="114"/>
      <point x="547" y="244"/>
      <point x="547" y="391" type="curve"/>
      <point x="547" y="442"/>
      <point x="525" y="498"/>
      <point x="494" y="565" type="curve"/>
      <point x="660" y="565" type="line"/>
      <point x="677" y="577"/>
      <point x="685" y="595"/>
    </contour>
    <contour>
      <point x="328" y="565" type="line"/>
      <point x="355" y="479"/>
      <point x="362" y="421"/>
      <point x="362" y="381" type="curve"/>
      <point x="362" y="321"/>
      <point x="306" y="243"/>
      <point x="272" y="243" type="curve" smooth="yes"/>
      <point x="250" y="243"/>
      <point x="230" y="312"/>
      <point x="230" y="345" type="curve" smooth="yes"/>
      <point x="230" y="408"/>
      <point x="273" y="500"/>
      <point x="313" y="565" type="curve"/>
    </contour>
    <contour>
      <point x="1318" y="565" type="line"/>
      <point x="1335" y="577"/>
      <point x="1343" y="595"/>
      <point x="1347" y="612" type="curve"/>
      <point x="1335" y="627" type="line"/>
      <point x="534" y="627" type="line"/>
      <point x="517" y="615"/>
      <point x="505" y="597"/>
      <point x="497" y="584" type="curve"/>
      <point x="517" y="565" type="line"/>
    </contour>
    <contour>
      <point x="842" y="618" type="curve"/>
      <point x="793" y="580" type="line"/>
      <point x="839" y="561"/>
      <point x="884" y="527"/>
      <point x="911" y="505" type="curve"/>
      <point x="906" y="495" type="line"/>
      <point x="850" y="474"/>
      <point x="761" y="453"/>
      <point x="640" y="443" type="curve" smooth="yes"/>
      <point x="574" y="387"/>
      <point x="543" y="329"/>
      <point x="543" y="255" type="curve" smooth="yes"/>
      <point x="543" y="156"/>
      <point x="647" y="56"/>
      <point x="807" y="27" type="curve"/>
      <point x="1054" y="27"/>
      <point x="1190" y="187"/>
      <point x="1175" y="330" type="curve"/>
      <point x="1118" y="370"/>
      <point x="1023" y="412"/>
      <point x="960" y="426" type="curve"/>
      <point x="909" y="379" type="line"/>
      <point x="944" y="363"/>
      <point x="983" y="336"/>
      <point x="1002" y="305" type="curve"/>
      <point x="997" y="223"/>
      <point x="934" y="143"/>
      <point x="823" y="107" type="curve"/>
      <point x="751" y="141"/>
      <point x="726" y="188"/>
      <point x="726" y="230" type="curve" smooth="yes"/>
      <point x="726" y="262"/>
      <point x="741" y="290"/>
      <point x="760" y="306" type="curve" smooth="yes"/>
      <point x="839" y="315"/>
      <point x="909" y="334"/>
      <point x="970" y="358" type="curve"/>
      <point x="1021" y="401"/>
      <point x="1049" y="481"/>
      <point x="1029" y="529" type="curve"/>
      <point x="974" y="570"/>
      <point x="921" y="604"/>
    </contour>
  </outline>
</glyph>
<glyph name="dvP_CA" format="1">
  <advance width="1245"/>
  <outline>
    <contour>
      <point x="506" y="565" type="line"/>
      <point x="523" y="577"/>
      <point x="531" y="595"/>
      <point x="535" y="612" type="curve"/>
      <point x="523" y="627" type="line"/>
      <point x="2" y="627" type="line"/>
      <point x="-15" y="615"/>
      <point x="-27" y="597"/>
      <point x="-35" y="584" type="curve"/>
      <point x="-15" y="565" type="line"/>
    </contour>
    <contour>
      <point x="142" y="603" type="curve"/>
      <point x="85" y="472"/>
      <point x="57" y="378"/>
      <point x="36" y="248" type="curve"/>
      <point x="42" y="171"/>
      <point x="142" y="129"/>
      <point x="255" y="123" type="curve"/>
      <point x="347" y="202"/>
      <point x="430" y="277"/>
      <point x="515" y="356" type="curve"/>
      <point x="472" y="405" type="line"/>
      <point x="399" y="340"/>
      <point x="306" y="283"/>
      <point x="239" y="242" type="curve"/>
      <point x="228" y="247" type="line"/>
      <point x="243" y="340"/>
      <point x="269" y="412"/>
      <point x="295" y="480" type="curve"/>
      <point x="371" y="578" type="line"/>
      <point x="295" y="586"/>
      <point x="218" y="595"/>
    </contour>
    <contour>
      <point x="1248" y="597" type="line"/>
      <point x="1218" y="651"/>
      <point x="1160" y="673"/>
      <point x="1012" y="658" type="curve"/>
      <point x="927" y="268" type="line"/>
      <point x="949" y="251" type="line"/>
      <point x="909" y="184" type="line"/>
      <point x="883" y="64" type="line"/>
      <point x="973" y="-5"/>
      <point x="1107" y="-17"/>
      <point x="1146" y="25" type="curve"/>
      <point x="1150" y="419" type="line"/>
    </contour>
    <contour>
      <point x="1373" y="565" type="line"/>
      <point x="1390" y="577"/>
      <point x="1398" y="595"/>
      <point x="1402" y="612" type="curve"/>
      <point x="1390" y="627" type="line"/>
      <point x="362" y="627" type="line"/>
      <point x="345" y="615"/>
      <point x="333" y="597"/>
      <point x="325" y="584" type="curve"/>
      <point x="345" y="565" type="line"/>
    </contour>
    <contour>
      <point x="452" y="339" type="curve"/>
      <point x="547" y="358"/>
      <point x="624" y="369"/>
      <point x="704" y="383" type="curve"/>
      <point x="712" y="374" type="line"/>
      <point x="594" y="311"/>
      <point x="460" y="302"/>
      <point x="460" y="230" type="curve" smooth="yes"/>
      <point x="460" y="166"/>
      <point x="566" y="94"/>
      <point x="668" y="78" type="curve" smooth="yes"/>
      <point x="800" y="132"/>
      <point x="929" y="241"/>
      <point x="994" y="321" type="curve"/>
      <point x="952" y="376" type="line"/>
      <point x="878" y="301"/>
      <point x="811" y="263"/>
      <point x="717" y="230" type="curve" smooth="yes"/>
      <point x="710" y="235"/>
      <point x="704" y="241"/>
      <point x="697" y="246" type="curve" smooth="yes"/>
      <point x="761" y="283"/>
      <point x="799" y="309"/>
      <point x="856" y="339" type="curve"/>
      <point x="890" y="399"/>
      <point x="854" y="466"/>
      <point x="786" y="505" type="curve"/>
      <point x="661" y="497"/>
      <point x="541" y="494"/>
      <point x="413" y="510" type="curve"/>
      <point x="366" y="479"/>
      <point x="369" y="392"/>
    </contour>
  </outline>
</glyph>
<glyph name="dvSS_NNA" format="1">
  <advance width="1343"/>
  <outline>
    <contour>
      <point x="423" y="328" type="curve"/>
      <point x="460" y="366" type="line"/>
      <point x="403" y="415"/>
      <point x="339" y="485"/>
      <point x="306" y="530" type="curve"/>
      <point x="243" y="482" type="line"/>
      <point x="287" y="434"/>
      <point x="376" y="362"/>
    </contour>
    <contour>
      <point x="506" y="565" type="line"/>
      <point x="523" y="577"/>
      <point x="531" y="595"/>
      <point x="535" y="612" type="curve"/>
      <point x="523" y="627" type="line"/>
      <point x="2" y="627" type="line"/>
      <point x="-15" y="615"/>
      <point x="-27" y="597"/>
      <point x="-35" y="584" type="curve"/>
      <point x="-15" y="565" type="line"/>
    </contour>
    <contour>
      <point x="142" y="603" type="curve"/>
      <point x="85" y="472"/>
      <point x="57" y="378"/>
      <point x="36" y="248" type="curve"/>
      <point x="42" y="171"/>
      <point x="142" y="129"/>
      <point x="255" y="123" type="curve"/>
      <point x="347" y="202"/>
      <point x="430" y="277"/>
      <point x="515" y="356" type="curve"/>
      <point x="472" y="405" type="line"/>
      <point x="399" y="340"/>
      <point x="306" y="283"/>
      <point x="239" y="242" type="curve"/>
      <point x="228" y="247" type="line"/>
      <point x="243" y="340"/>
      <point x="269" y="412"/>
      <point x="295" y="480" type="curve"/>
      <point x="371" y="578" type="line"/>
      <point x="295" y="586"/>
      <point x="218" y="595"/>
    </contour>
    <contour>
      <point x="1498" y="612" type="curve"/>
      <point x="1486" y="627" type="line"/>
      <point x="661" y="627" type="line"/>
      <point x="526" y="550"/>
      <point x="465" y="427"/>
      <point x="465" y="348" type="curve" smooth="yes"/>
      <point x="465" y="258"/>
      <point x="573" y="114"/>
      <point x="676" y="114" type="curve" smooth="yes"/>
      <point x="795" y="114"/>
      <point x="976" y="244"/>
      <point x="976" y="391" type="curve"/>
      <point x="976" y="442"/>
      <point x="954" y="498"/>
      <point x="923" y="565" type="curve"/>
      <point x="1469" y="565" type="line"/>
      <point x="1486" y="577"/>
      <point x="1494" y="595"/>
    </contour>
    <contour>
      <point x="757" y="565" type="line"/>
      <point x="778" y="501"/>
      <point x="793" y="449"/>
      <point x="798" y="386" type="curve"/>
      <point x="779" y="301"/>
      <point x="744" y="264"/>
      <point x="696" y="243" type="curve"/>
      <point x="668" y="265"/>
      <point x="653" y="302"/>
      <point x="647" y="357" type="curve"/>
      <point x="665" y="433"/>
      <point x="700" y="498"/>
      <point x="743" y="565" type="curve"/>
    </contour>
    <contour>
      <point x="1344" y="597" type="line"/>
      <point x="1314" y="651"/>
      <point x="1256" y="673"/>
      <point x="1108" y="658" type="curve"/>
      <point x="979" y="64" type="line"/>
      <point x="1069" y="-5"/>
      <point x="1203" y="-17"/>
      <point x="1242" y="25" type="curve"/>
      <point x="1246" y="419" type="line"/>
    </contour>
  </outline>
</glyph>
<glyph name="dvSS_NN_YA" format="1">
  <advance width="1826"/>
  <outline>
    <contour>
      <point x="423" y="328" type="curve"/>
      <point x="460" y="366" type="line"/>
      <point x="403" y="415"/>
      <point x="339" y="485"/>
      <point x="306" y="530" type="curve"/>
      <point x="243" y="482" type="line"/>
      <point x="287" y="434"/>
      <point x="376" y="362"/>
    </contour>
    <contour>
      <point x="1117" y="612" type="curve"/>
      <point x="1105" y="627" type="line"/>
      <point x="660" y="627" type="line"/>
      <point x="525" y="550"/>
      <point x="464" y="434"/>
      <point x="464" y="359" type="curve" smooth="yes"/>
      <point x="464" y="258"/>
      <point x="572" y="114"/>
      <point x="675" y="114" type="curve" smooth="yes"/>
      <point x="794" y="114"/>
      <point x="975" y="244"/>
      <point x="975" y="391" type="curve"/>
      <point x="975" y="442"/>
      <point x="953" y="498"/>
      <point x="922" y="565" type="curve"/>
      <point x="1088" y="565" type="line"/>
      <point x="1105" y="577"/>
      <point x="1113" y="595"/>
    </contour>
    <contour>
      <point x="756" y="565" type="line"/>
      <point x="783" y="479"/>
      <point x="790" y="421"/>
      <point x="790" y="381" type="curve"/>
      <point x="790" y="321"/>
      <point x="734" y="243"/>
      <point x="700" y="243" type="curve" smooth="yes"/>
      <point x="678" y="243"/>
      <point x="658" y="312"/>
      <point x="658" y="345" type="curve" smooth="yes"/>
      <point x="658" y="408"/>
      <point x="701" y="500"/>
      <point x="741" y="565" type="curve"/>
    </contour>
    <contour>
      <point x="1829" y="597" type="line"/>
      <point x="1799" y="651"/>
      <point x="1741" y="673"/>
      <point x="1593" y="658" type="curve"/>
      <point x="1507" y="262" type="line"/>
      <point x="1535" y="231" type="line"/>
      <point x="1488" y="171" type="line"/>
      <point x="1464" y="64" type="line"/>
      <point x="1554" y="-5"/>
      <point x="1688" y="-17"/>
      <point x="1727" y="25" type="curve"/>
      <point x="1731" y="419" type="line"/>
    </contour>
    <contour>
      <point x="1954" y="565" type="line"/>
      <point x="1971" y="577"/>
      <point x="1979" y="595"/>
      <point x="1983" y="612" type="curve"/>
      <point x="1971" y="627" type="line"/>
      <point x="995" y="627" type="line"/>
      <point x="977" y="615"/>
      <point x="964" y="597"/>
      <point x="956" y="584" type="curve"/>
      <point x="977" y="565" type="line"/>
    </contour>
    <contour>
      <point x="1083" y="578" type="curve"/>
      <point x="1051" y="524"/>
      <point x="1098" y="464"/>
      <point x="1194" y="440" type="curve"/>
      <point x="1213" y="450"/>
      <point x="1235" y="459"/>
      <point x="1257" y="465" type="curve" smooth="yes"/>
      <point x="1278" y="470"/>
      <point x="1300" y="471"/>
      <point x="1321" y="466" type="curve" smooth="yes"/>
      <point x="1301" y="344"/>
      <point x="1029" y="317"/>
      <point x="1029" y="250" type="curve" smooth="yes"/>
      <point x="1029" y="170"/>
      <point x="1169" y="81"/>
      <point x="1249" y="81" type="curve" smooth="yes"/>
      <point x="1315" y="81"/>
      <point x="1524" y="220"/>
      <point x="1584" y="318" type="curve"/>
      <point x="1530" y="365" type="line"/>
      <point x="1470" y="298"/>
      <point x="1421" y="267"/>
      <point x="1340" y="225" type="curve" smooth="yes"/>
      <point x="1316" y="227"/>
      <point x="1275" y="250"/>
      <point x="1284" y="284" type="curve" smooth="yes"/>
      <point x="1380" y="338"/>
      <point x="1491" y="425"/>
      <point x="1491" y="500" type="curve" smooth="yes"/>
      <point x="1491" y="551"/>
      <point x="1407" y="627"/>
      <point x="1288" y="627" type="curve" smooth="yes"/>
      <point x="1230" y="627"/>
      <point x="1139" y="615"/>
    </contour>
    <contour>
      <point x="506" y="565" type="line"/>
      <point x="523" y="577"/>
      <point x="531" y="595"/>
      <point x="535" y="612" type="curve"/>
      <point x="523" y="627" type="line"/>
      <point x="2" y="627" type="line"/>
      <point x="-15" y="615"/>
      <point x="-27" y="597"/>
      <point x="-35" y="584" type="curve"/>
      <point x="-15" y="565" type="line"/>
    </contour>
    <contour>
      <point x="142" y="603" type="curve"/>
      <point x="85" y="472"/>
      <point x="57" y="378"/>
      <point x="36" y="248" type="curve"/>
      <point x="42" y="171"/>
      <point x="142" y="129"/>
      <point x="255" y="123" type="curve"/>
      <point x="347" y="202"/>
      <point x="430" y="277"/>
      <point x="515" y="356" type="curve"/>
      <point x="472" y="405" type="line"/>
      <point x="399" y="340"/>
      <point x="306" y="283"/>
      <point x="239" y="242" type="curve"/>
      <point x="228" y="247" type="line"/>
      <point x="243" y="340"/>
      <point x="269" y="412"/>
      <point x="295" y="480" type="curve"/>
      <point x="371" y="578" type="line"/>
      <point x="295" y="586"/>
      <point x="218" y="595"/>
    </contour>
  </outline>
</glyph>
<glyph name="dvT_TA" format="1">
  <advance width="1106"/>
  <outline>
    <contour>
      <point x="591" y="565" type="line"/>
      <point x="608" y="577"/>
      <point x="616" y="595"/>
      <point x="620" y="612" type="curve"/>
      <point x="608" y="627" type="line"/>
      <point x="3" y="627" type="line"/>
      <point x="-14" y="615"/>
      <point x="-26" y="597"/>
      <point x="-34" y="584" type="curve"/>
      <point x="-14" y="565" type="line"/>
    </contour>
    <contour>
      <point x="492" y="376" type="line"/>
      <point x="389" y="402"/>
      <point x="210" y="402"/>
      <point x="108" y="376" type="curve"/>
      <point x="57" y="354"/>
      <point x="36" y="306"/>
      <point x="13" y="217" type="curve"/>
      <point x="36" y="148"/>
      <point x="113" y="63"/>
      <point x="211" y="0" type="curve"/>
      <point x="268" y="23"/>
      <point x="297" y="54"/>
      <point x="292" y="93" type="curve"/>
      <point x="246" y="147"/>
      <point x="226" y="177"/>
      <point x="210" y="222" type="curve"/>
      <point x="212" y="236"/>
      <point x="218" y="249"/>
      <point x="226" y="259" type="curve"/>
      <point x="261" y="277"/>
      <point x="367" y="307"/>
      <point x="447" y="294" type="curve"/>
    </contour>
    <contour>
      <point x="1109" y="597" type="line"/>
      <point x="1079" y="651"/>
      <point x="1021" y="673"/>
      <point x="873" y="658" type="curve"/>
      <point x="812" y="378" type="line"/>
      <point x="831" y="344" type="line"/>
      <point x="794" y="292" type="line"/>
      <point x="744" y="64" type="line"/>
      <point x="834" y="-5"/>
      <point x="968" y="-17"/>
      <point x="1007" y="25" type="curve"/>
      <point x="1011" y="419" type="line"/>
    </contour>
    <contour>
      <point x="1234" y="565" type="line"/>
      <point x="1251" y="577"/>
      <point x="1259" y="595"/>
      <point x="1263" y="612" type="curve"/>
      <point x="1251" y="627" type="line"/>
      <point x="387" y="627" type="line"/>
      <point x="370" y="615"/>
      <point x="358" y="597"/>
      <point x="350" y="584" type="curve"/>
      <point x="370" y="565" type="line"/>
    </contour>
    <contour>
      <point x="829" y="455" type="line"/>
      <point x="738" y="400"/>
      <point x="611" y="373"/>
      <point x="492" y="376" type="curve"/>
      <point x="441" y="354"/>
      <point x="420" y="306"/>
      <point x="397" y="217" type="curve"/>
      <point x="420" y="148"/>
      <point x="497" y="63"/>
      <point x="595" y="0" type="curve"/>
      <point x="652" y="23"/>
      <point x="681" y="54"/>
      <point x="676" y="93" type="curve"/>
      <point x="630" y="147"/>
      <point x="610" y="177"/>
      <point x="594" y="222" type="curve"/>
      <point x="596" y="236"/>
      <point x="602" y="249"/>
      <point x="610" y="259" type="curve"/>
      <point x="687" y="281"/>
      <point x="779" y="320"/>
      <point x="864" y="383" type="curve"/>
    </contour>
  </outline>
</glyph>
<glyph name="dvT_T_YA" format="1">
  <advance width="1601"/>
  <outline>
    <contour>
      <point x="591" y="565" type="line"/>
      <point x="608" y="577"/>
      <point x="616" y="595"/>
      <point x="620" y="612" type="curve"/>
      <point x="608" y="627" type="line"/>
      <point x="3" y="627" type="line"/>
      <point x="-14" y="615"/>
      <point x="-26" y="597"/>
      <point x="-34" y="584" type="curve"/>
      <point x="-14" y="565" type="line"/>
    </contour>
    <contour>
      <point x="492" y="376" type="line"/>
      <point x="389" y="402"/>
      <point x="210" y="402"/>
      <point x="108" y="376" type="curve"/>
      <point x="57" y="354"/>
      <point x="36" y="306"/>
      <point x="13" y="217" type="curve"/>
      <point x="36" y="148"/>
      <point x="113" y="63"/>
      <point x="211" y="0" type="curve"/>
      <point x="268" y="23"/>
      <point x="297" y="54"/>
      <point x="292" y="93" type="curve"/>
      <point x="246" y="147"/>
      <point x="226" y="177"/>
      <point x="210" y="222" type="curve"/>
      <point x="212" y="236"/>
      <point x="218" y="249"/>
      <point x="226" y="259" type="curve"/>
      <point x="261" y="277"/>
      <point x="367" y="307"/>
      <point x="447" y="294" type="curve"/>
    </contour>
    <contour>
      <point x="977" y="565" type="line"/>
      <point x="994" y="577"/>
      <point x="1002" y="595"/>
      <point x="1006" y="612" type="curve"/>
      <point x="994" y="627" type="line"/>
      <point x="389" y="627" type="line"/>
      <point x="372" y="615"/>
      <point x="360" y="597"/>
      <point x="352" y="584" type="curve"/>
      <point x="372" y="565" type="line"/>
    </contour>
    <contour>
      <point x="904" y="302" type="line"/>
      <point x="811" y="432"/>
      <point x="616" y="429"/>
      <point x="502" y="396" type="curve"/>
      <point x="451" y="374"/>
      <point x="430" y="326"/>
      <point x="411" y="256" type="curve"/>
      <point x="424" y="168"/>
      <point x="499" y="63"/>
      <point x="597" y="0" type="curve"/>
      <point x="653" y="24"/>
      <point x="682" y="55"/>
      <point x="678" y="93" type="curve"/>
      <point x="632" y="140"/>
      <point x="610" y="187"/>
      <point x="604" y="242" type="curve"/>
      <point x="606" y="256"/>
      <point x="612" y="269"/>
      <point x="620" y="279" type="curve"/>
      <point x="662" y="303"/>
      <point x="762" y="303"/>
      <point x="805" y="251" type="curve"/>
    </contour>
    <contour>
      <point x="1604" y="597" type="line"/>
      <point x="1574" y="651"/>
      <point x="1516" y="673"/>
      <point x="1368" y="658" type="curve"/>
      <point x="1282" y="262" type="line"/>
      <point x="1310" y="231" type="line"/>
      <point x="1263" y="171" type="line"/>
      <point x="1239" y="64" type="line"/>
      <point x="1329" y="-5"/>
      <point x="1463" y="-17"/>
      <point x="1502" y="25" type="curve"/>
      <point x="1506" y="419" type="line"/>
    </contour>
    <contour>
      <point x="1729" y="565" type="line"/>
      <point x="1746" y="577"/>
      <point x="1754" y="595"/>
      <point x="1758" y="612" type="curve"/>
      <point x="1746" y="627" type="line"/>
      <point x="770" y="627" type="line"/>
      <point x="752" y="615"/>
      <point x="739" y="597"/>
      <point x="731" y="584" type="curve"/>
      <point x="752" y="565" type="line"/>
    </contour>
    <contour>
      <point x="858" y="578" type="curve"/>
      <point x="826" y="524"/>
      <point x="873" y="464"/>
      <point x="969" y="440" type="curve"/>
      <point x="988" y="450"/>
      <point x="1010" y="459"/>
      <point x="1032" y="465" type="curve" smooth="yes"/>
      <point x="1053" y="470"/>
      <point x="1075" y="471"/>
      <point x="1096" y="466" type="curve" smooth="yes"/>
      <point x="1076" y="344"/>
      <point x="804" y="317"/>
      <point x="804" y="250" type="curve" smooth="yes"/>
      <point x="804" y="170"/>
      <point x="944" y="81"/>
      <point x="1024" y="81" type="curve" smooth="yes"/>
      <point x="1090" y="81"/>
      <point x="1299" y="220"/>
      <point x="1359" y="318" type="curve"/>
      <point x="1305" y="365" type="line"/>
      <point x="1245" y="298"/>
      <point x="1196" y="267"/>
      <point x="1115" y="225" type="curve" smooth="yes"/>
      <point x="1091" y="227"/>
      <point x="1050" y="250"/>
      <point x="1059" y="284" type="curve" smooth="yes"/>
      <point x="1155" y="338"/>
      <point x="1266" y="425"/>
      <point x="1266" y="500" type="curve" smooth="yes"/>
      <point x="1266" y="551"/>
      <point x="1182" y="627"/>
      <point x="1063" y="627" type="curve" smooth="yes"/>
      <point x="1005" y="627"/>
      <point x="914" y="615"/>
    </contour>
  </outline>
</glyph>
<glyph name="dvmI.a05" format="1">
  <advance width="380"/>
  <outline>
    <contour>
      <point x="961" y="734" type="move" name="abvm_Reph_alt"/>
    </contour>
    <contour>
      <point x="137" y="825" type="curve"/>
      <point x="139" y="627" type="line"/>
      <point x="2" y="627" type="line"/>
      <point x="-15" y="615"/>
      <point x="-27" y="597"/>
      <point x="-35" y="584" type="curve"/>
      <point x="-15" y="565" type="line"/>
      <point x="133" y="565" type="line"/>
      <point x="18" y="64" type="line"/>
      <point x="108" y="-5"/>
      <point x="242" y="-17"/>
      <point x="281" y="25" type="curve"/>
      <point x="278" y="245"/>
      <point x="290" y="419"/>
      <point x="304" y="565" type="curve"/>
      <point x="508" y="565" type="line"/>
      <point x="525" y="577"/>
      <point x="533" y="595"/>
      <point x="537" y="612" type="curve"/>
      <point x="525" y="627" type="line"/>
      <point x="312" y="627" type="line"/>
      <point x="360" y="853" type="line"/>
      <point x="376" y="862" type="line"/>
      <point x="548" y="836"/>
      <point x="750" y="780"/>
      <point x="917" y="684" type="curve"/>
      <point x="1000" y="697"/>
      <point x="1050" y="741"/>
      <point x="1055" y="798" type="curve"/>
      <point x="891" y="913"/>
      <point x="607" y="1004"/>
      <point x="419" y="1004" type="curve" smooth="yes"/>
      <point x="311" y="1004"/>
      <point x="179" y="915"/>
    </contour>
  </outline>
</glyph>
<glyph name="dvmI.a06" format="1">
  <advance width="380"/>
  <outline>
    <contour>
      <point x="1027" y="735" type="move" name="abvm_Reph_alt"/>
    </contour>
    <contour>
      <point x="137" y="822" type="curve"/>
      <point x="139" y="627" type="line"/>
      <point x="2" y="627" type="line"/>
      <point x="-15" y="615"/>
      <point x="-27" y="597"/>
      <point x="-35" y="584" type="curve"/>
      <point x="-15" y="565" type="line"/>
      <point x="133" y="565" type="line"/>
      <point x="18" y="64" type="line"/>
      <point x="108" y="-5"/>
      <point x="242" y="-17"/>
      <point x="281" y="25" type="curve"/>
      <point x="278" y="246"/>
      <point x="290" y="420"/>
      <point x="303" y="565" type="curve"/>
      <point x="508" y="565" type="line"/>
      <point x="525" y="577"/>
      <point x="533" y="595"/>
      <point x="537" y="612" type="curve"/>
      <point x="525" y="627" type="line"/>
      <point x="311" y="627" type="line"/>
      <point x="362" y="852" type="line"/>
      <point x="378" y="861" type="line"/>
      <point x="566" y="840"/>
      <point x="802" y="782"/>
      <point x="991" y="686" type="curve"/>
      <point x="1072" y="700"/>
      <point x="1119" y="744"/>
      <point x="1122" y="798" type="curve"/>
      <point x="935" y="916"/>
      <point x="629" y="1004"/>
      <point x="427" y="1004" type="curve" smooth="yes"/>
      <point x="311" y="1004"/>
      <point x="180" y="914"/>
    </contour>
  </outline>
</glyph>
<glyph name="dvmI.a08" format="1">
  <advance width="380"/>
  <outline>
    <contour>
      <point x="1158" y="734" type="move" name="abvm_Reph_alt"/>
    </contour>
    <contour>
      <point x="137" y="814" type="curve"/>
      <point x="139" y="627" type="line"/>
      <point x="2" y="627" type="line"/>
      <point x="-15" y="615"/>
      <point x="-27" y="597"/>
      <point x="-35" y="584" type="curve"/>
      <point x="-15" y="565" type="line"/>
      <point x="133" y="565" type="line"/>
      <point x="18" y="64" type="line"/>
      <point x="108" y="-5"/>
      <point x="242" y="-17"/>
      <point x="281" y="25" type="curve"/>
      <point x="278" y="245"/>
      <point x="290" y="419"/>
      <point x="301" y="565" type="curve"/>
      <point x="508" y="565" type="line"/>
      <point x="525" y="577"/>
      <point x="533" y="595"/>
      <point x="537" y="612" type="curve"/>
      <point x="525" y="627" type="line"/>
      <point x="310" y="627" type="line"/>
      <point x="367" y="848" type="line"/>
      <point x="383" y="857" type="line"/>
      <point x="600" y="847"/>
      <point x="907" y="786"/>
      <point x="1138" y="687" type="curve"/>
      <point x="1216" y="704"/>
      <point x="1257" y="747"/>
      <point x="1256" y="798" type="curve"/>
      <point x="1025" y="919"/>
      <point x="675" y="1002"/>
      <point x="443" y="1002" type="curve" smooth="yes"/>
      <point x="312" y="1002"/>
      <point x="182" y="909"/>
    </contour>
  </outline>
</glyph>
<glyph name="dvmI.a09" format="1">
  <advance width="380"/>
  <outline>
    <contour>
      <point x="1224" y="735" type="move" name="abvm_Reph_alt"/>
    </contour>
    <contour>
      <point x="137" y="810" type="curve"/>
      <point x="139" y="627" type="line"/>
      <point x="2" y="627" type="line"/>
      <point x="-15" y="615"/>
      <point x="-27" y="597"/>
      <point x="-35" y="584" type="curve"/>
      <point x="-15" y="565" type="line"/>
      <point x="133" y="565" type="line"/>
      <point x="18" y="64" type="line"/>
      <point x="108" y="-5"/>
      <point x="242" y="-17"/>
      <point x="281" y="25" type="curve"/>
      <point x="278" y="245"/>
      <point x="290" y="419"/>
      <point x="300" y="565" type="curve"/>
      <point x="508" y="565" type="line"/>
      <point x="525" y="577"/>
      <point x="533" y="595"/>
      <point x="537" y="612" type="curve"/>
      <point x="525" y="627" type="line"/>
      <point x="309" y="627" type="line"/>
      <point x="369" y="847" type="line"/>
      <point x="385" y="856" type="line"/>
      <point x="617" y="851"/>
      <point x="959" y="789"/>
      <point x="1211" y="689" type="curve"/>
      <point x="1288" y="707"/>
      <point x="1326" y="749"/>
      <point x="1323" y="799" type="curve"/>
      <point x="1070" y="922"/>
      <point x="698" y="1002"/>
      <point x="450" y="1002" type="curve" smooth="yes"/>
      <point x="313" y="1002"/>
      <point x="182" y="907"/>
    </contour>
  </outline>
</glyph>
<glyph name="dvmI.a12" format="1">
  <advance width="379"/>
  <outline>
    <contour>
      <point x="1402" y="662" type="move" name="abvm_Reph_alt"/>
    </contour>
    <contour>
      <point x="136" y="799" type="curve"/>
      <point x="138" y="627" type="line"/>
      <point x="2" y="627" type="line"/>
      <point x="-15" y="615"/>
      <point x="-27" y="597"/>
      <point x="-35" y="584" type="curve"/>
      <point x="-15" y="565" type="line"/>
      <point x="133" y="565" type="line"/>
      <point x="18" y="64" type="line"/>
      <point x="108" y="-5"/>
      <point x="242" y="-17"/>
      <point x="281" y="25" type="curve"/>
      <point x="277" y="244"/>
      <point x="289" y="418"/>
      <point x="298" y="565" type="curve"/>
      <point x="508" y="565" type="line"/>
      <point x="525" y="577"/>
      <point x="533" y="595"/>
      <point x="537" y="612" type="curve"/>
      <point x="525" y="627" type="line"/>
      <point x="307" y="627" type="line"/>
      <point x="374" y="842" type="line"/>
      <point x="392" y="851" type="line"/>
      <point x="669" y="862"/>
      <point x="1116" y="796"/>
      <point x="1431" y="692" type="curve"/>
      <point x="1479" y="726"/>
      <point x="1491" y="769"/>
      <point x="1474" y="802" type="curve"/>
      <point x="1203" y="928"/>
      <point x="765" y="1000"/>
      <point x="473" y="1000" type="curve" smooth="yes"/>
      <point x="314" y="1000"/>
      <point x="184" y="900"/>
    </contour>
  </outline>
</glyph>
<glyph name="dvmI.a13" format="1">
  <advance width="379"/>
  <outline>
    <contour>
      <point x="1475" y="662" type="move" name="abvm_Reph_alt"/>
    </contour>
    <contour>
      <point x="136" y="795" type="curve"/>
      <point x="139" y="627" type="line"/>
      <point x="2" y="627" type="line"/>
      <point x="-15" y="615"/>
      <point x="-27" y="597"/>
      <point x="-35" y="584" type="curve"/>
      <point x="-15" y="565" type="line"/>
      <point x="133" y="565" type="line"/>
      <point x="18" y="64" type="line"/>
      <point x="108" y="-5"/>
      <point x="242" y="-17"/>
      <point x="281" y="25" type="curve"/>
      <point x="277" y="244"/>
      <point x="290" y="418"/>
      <point x="297" y="565" type="curve"/>
      <point x="508" y="565" type="line"/>
      <point x="525" y="577"/>
      <point x="533" y="595"/>
      <point x="537" y="612" type="curve"/>
      <point x="525" y="627" type="line"/>
      <point x="306" y="627" type="line"/>
      <point x="377" y="840" type="line"/>
      <point x="395" y="850" type="line"/>
      <point x="686" y="865"/>
      <point x="1169" y="798"/>
      <point x="1505" y="693" type="curve"/>
      <point x="1542" y="723"/>
      <point x="1570" y="772"/>
      <point x="1547" y="815" type="curve"/>
      <point x="1249" y="930"/>
      <point x="789" y="1000"/>
      <point x="481" y="1000" type="curve" smooth="yes"/>
      <point x="314" y="1000"/>
      <point x="185" y="898"/>
    </contour>
  </outline>
</glyph>
<glyph name="dvmI.a14" format="1">
  <advance width="379"/>
  <outline>
    <contour>
      <point x="1546" y="663" type="move" name="abvm_Reph_alt"/>
    </contour>
    <contour>
      <point x="136" y="792" type="curve"/>
      <point x="139" y="627" type="line"/>
      <point x="2" y="627" type="line"/>
      <point x="-15" y="615"/>
      <point x="-27" y="597"/>
      <point x="-35" y="584" type="curve"/>
      <point x="-15" y="565" type="line"/>
      <point x="133" y="565" type="line"/>
      <point x="18" y="64" type="line"/>
      <point x="108" y="-5"/>
      <point x="242" y="-17"/>
      <point x="281" y="25" type="curve"/>
      <point x="277" y="244"/>
      <point x="290" y="418"/>
      <point x="296" y="565" type="curve"/>
      <point x="508" y="565" type="line"/>
      <point x="525" y="577"/>
      <point x="533" y="595"/>
      <point x="537" y="612" type="curve"/>
      <point x="525" y="627" type="line"/>
      <point x="306" y="627" type="line"/>
      <point x="379" y="838" type="line"/>
      <point x="397" y="848" type="line"/>
      <point x="703" y="869"/>
      <point x="1221" y="800"/>
      <point x="1578" y="694" type="curve"/>
      <point x="1629" y="735"/>
      <point x="1640" y="779"/>
      <point x="1622" y="813" type="curve"/>
      <point x="1279" y="937"/>
      <point x="811" y="999"/>
      <point x="489" y="999" type="curve" smooth="yes"/>
      <point x="315" y="999"/>
      <point x="186" y="896"/>
    </contour>
  </outline>
</glyph>
<glyph name="dvmI.a15" format="1">
  <advance width="379"/>
  <outline>
    <contour>
      <point x="1619" y="663" type="move" name="abvm_Reph_alt"/>
    </contour>
    <contour>
      <point x="137" y="787" type="curve"/>
      <point x="139" y="627" type="line"/>
      <point x="2" y="627" type="line"/>
      <point x="-15" y="615"/>
      <point x="-27" y="597"/>
      <point x="-35" y="584" type="curve"/>
      <point x="-15" y="565" type="line"/>
      <point x="133" y="565" type="line"/>
      <point x="18" y="64" type="line"/>
      <point x="108" y="-5"/>
      <point x="242" y="-17"/>
      <point x="281" y="25" type="curve"/>
      <point x="278" y="243"/>
      <point x="290" y="417"/>
      <point x="296" y="565" type="curve"/>
      <point x="508" y="565" type="line"/>
      <point x="525" y="577"/>
      <point x="533" y="595"/>
      <point x="537" y="612" type="curve"/>
      <point x="525" y="627" type="line"/>
      <point x="305" y="627" type="line"/>
      <point x="382" y="836" type="line"/>
      <point x="400" y="846" type="line"/>
      <point x="721" y="872"/>
      <point x="1274" y="802"/>
      <point x="1652" y="694" type="curve"/>
      <point x="1697" y="732"/>
      <point x="1713" y="772"/>
      <point x="1697" y="810" type="curve"/>
      <point x="1339" y="933"/>
      <point x="835" y="998"/>
      <point x="497" y="998" type="curve" smooth="yes"/>
      <point x="316" y="998"/>
      <point x="187" y="893"/>
    </contour>
  </outline>
</glyph>
<glyph name="dvmI.a18" format="1">
  <advance width="379"/>
  <outline>
    <contour>
      <point x="1835" y="667" type="move" name="abvm_Reph_alt"/>
    </contour>
    <contour>
      <point x="136" y="776" type="curve"/>
      <point x="139" y="627" type="line"/>
      <point x="2" y="627" type="line"/>
      <point x="-15" y="615"/>
      <point x="-27" y="597"/>
      <point x="-35" y="584" type="curve"/>
      <point x="-15" y="565" type="line"/>
      <point x="133" y="565" type="line"/>
      <point x="18" y="64" type="line"/>
      <point x="108" y="-5"/>
      <point x="242" y="-17"/>
      <point x="281" y="25" type="curve"/>
      <point x="277" y="243"/>
      <point x="290" y="417"/>
      <point x="294" y="565" type="curve"/>
      <point x="508" y="565" type="line"/>
      <point x="525" y="577"/>
      <point x="533" y="595"/>
      <point x="537" y="612" type="curve"/>
      <point x="525" y="627" type="line"/>
      <point x="303" y="627" type="line"/>
      <point x="388" y="831" type="line"/>
      <point x="406" y="842" type="line"/>
      <point x="773" y="884"/>
      <point x="1430" y="808"/>
      <point x="1872" y="698" type="curve"/>
      <point x="1925" y="730"/>
      <point x="1934" y="768"/>
      <point x="1915" y="803" type="curve"/>
      <point x="1473" y="940"/>
      <point x="903" y="996"/>
      <point x="520" y="996" type="curve" smooth="yes"/>
      <point x="317" y="996"/>
      <point x="189" y="887"/>
    </contour>
  </outline>
</glyph>
<glyph name="dvmI.a20" format="1">
  <advance width="379"/>
  <outline>
    <contour>
      <point x="1980" y="669" type="move" name="abvm_Reph_alt"/>
    </contour>
    <contour>
      <point x="137" y="769" type="curve"/>
      <point x="139" y="627" type="line"/>
      <point x="3" y="627" type="line"/>
      <point x="-14" y="615"/>
      <point x="-26" y="597"/>
      <point x="-34" y="584" type="curve"/>
      <point x="-14" y="565" type="line"/>
      <point x="133" y="565" type="line"/>
      <point x="19" y="64" type="line"/>
      <point x="109" y="-5"/>
      <point x="243" y="-17"/>
      <point x="282" y="25" type="curve"/>
      <point x="278" y="242"/>
      <point x="290" y="416"/>
      <point x="292" y="565" type="curve"/>
      <point x="509" y="565" type="line"/>
      <point x="526" y="577"/>
      <point x="534" y="595"/>
      <point x="538" y="612" type="curve"/>
      <point x="526" y="627" type="line"/>
      <point x="302" y="627" type="line"/>
      <point x="393" y="828" type="line"/>
      <point x="412" y="839" type="line"/>
      <point x="808" y="891"/>
      <point x="1536" y="813"/>
      <point x="2020" y="700" type="curve"/>
      <point x="2082" y="733"/>
      <point x="2085" y="770"/>
      <point x="2062" y="801" type="curve"/>
      <point x="1563" y="944"/>
      <point x="949" y="995"/>
      <point x="536" y="995" type="curve" smooth="yes"/>
      <point x="319" y="995"/>
      <point x="191" y="883"/>
    </contour>
  </outline>
</glyph>
